<?xml version="1.0" encoding="UTF-8"?>
<svg version="1.1" xmlns="http://www.w3.org/2000/svg" width="48" height="48">
<path d="M0 0 C2.93081463 1.28637895 5.63522123 2.85104337 8.375 4.5 C12.149375 6.7275 12.149375 6.7275 16 9 C16 17.58 16 26.16 16 35 C13.48375 36.485 10.9675 37.97 8.375 39.5 C7.59431152 39.96986328 6.81362305 40.43972656 6.00927734 40.92382812 C1.88556361 43.29818272 -1.13808451 44.91160915 -6 44 C-8.93081463 42.71362105 -11.63522123 41.14895663 -14.375 39.5 C-16.89125 38.015 -19.4075 36.53 -22 35 C-22 26.42 -22 17.84 -22 9 C-19.48375 7.515 -16.9675 6.03 -14.375 4.5 C-13.59431152 4.03013672 -12.81362305 3.56027344 -12.00927734 3.07617188 C-7.88556361 0.70181728 -4.86191549 -0.91160915 0 0 Z " fill="#F6F6F6" transform="translate(27,3)"/>
<path d="M0 0 C2.93081463 1.28637895 5.63522123 2.85104337 8.375 4.5 C12.149375 6.7275 12.149375 6.7275 16 9 C16 17.58 16 26.16 16 35 C13.48375 36.485 10.9675 37.97 8.375 39.5 C7.59431152 39.96986328 6.81362305 40.43972656 6.00927734 40.92382812 C1.88556361 43.29818272 -1.13808451 44.91160915 -6 44 C-8.93081463 42.71362105 -11.63522123 41.14895663 -14.375 39.5 C-16.89125 38.015 -19.4075 36.53 -22 35 C-22 26.42 -22 17.84 -22 9 C-19.48375 7.515 -16.9675 6.03 -14.375 4.5 C-13.59431152 4.03013672 -12.81362305 3.56027344 -12.00927734 3.07617188 C-7.88556361 0.70181728 -4.86191549 -0.91160915 0 0 Z M-7.6953125 3.96875 C-8.66235107 4.51692383 -8.66235107 4.51692383 -9.64892578 5.07617188 C-10.46603027 5.54603516 -11.28313477 6.01589844 -12.125 6.5 C-14.72375 7.985 -17.3225 9.47 -20 11 C-20 17.6 -20 24.2 -20 31 C-17.48375 32.52625 -14.9675 34.0525 -12.375 35.625 C-11.59431152 36.11307129 -10.81362305 36.60114258 -10.00927734 37.10400391 C-5.73192597 39.63584436 -5.73192597 39.63584436 -0.875 39.421875 C0.07375 38.95265625 1.0225 38.4834375 2 38 C3.05960938 37.66226563 4.11921875 37.32453125 5.2109375 36.9765625 C9.00090124 35.35763972 11.26782191 34.12682604 14 31 C15.54098889 24.50146937 14.72594619 17.57539722 14 11 C11.37785672 9.49480613 8.75255792 7.99568681 6.125 6.5 C5.37863281 6.07074219 4.63226562 5.64148438 3.86328125 5.19921875 C3.14785156 4.79316406 2.43242187 4.38710937 1.6953125 3.96875 C0.7055542 3.40317383 0.7055542 3.40317383 -0.30419922 2.82617188 C-3.39323441 1.32123449 -4.88801277 2.36457872 -7.6953125 3.96875 Z " fill="#060606" transform="translate(27,3)"/>
<path d="M0 0 C3.4375 1.5 3.4375 1.5 6 3 C6 4.32 6 5.64 6 7 C4.34385343 7.38218767 2.67542976 7.71395102 1 8 C0.67 7.67 0.34 7.34 0 7 C-4.12795128 6.62418498 -4.12795128 6.62418498 -7.875 8.125 C-9.52854531 10.88090884 -9.39365568 12.85075452 -9 16 C-8 18 -8 18 -6 19 C-2.16297089 19.33365471 1.26354175 18.87916665 5 18 C5.66 19.32 6.32 20.64 7 22 C2.38072498 25.66356295 -1.0789827 26.50178113 -7 26 C-11.86953166 23.56523417 -14.18709505 21.13656401 -16 16 C-16.53544952 11.71640386 -16.31035287 9.59771664 -14.3125 5.75 C-10.02120266 0.64683559 -6.68139115 -0.70330433 0 0 Z " fill="#1C1C1C" transform="translate(25,11)"/>
<path d="M0 0 C1.875 1.3125 1.875 1.3125 3 3 C3 3.99 3 4.98 3 6 C2.34 6 1.68 6 1 6 C1 6.66 1 7.32 1 8 C1.66 8 2.32 8 3 8 C3.33 8.99 3.66 9.98 4 11 C1.62741513 13.19007834 0.23535087 13.965678 -3 14.4375 C-6 14 -6 14 -8.375 12.375 C-10.48706506 9.28813568 -10.61195145 7.6717087 -10 4 C-7.21052575 -0.0769239 -4.82207542 -0.71818145 0 0 Z " fill="#F6F6F6" transform="translate(25,17)"/>
<path d="M0 0 C2.4375 1 2.4375 1 4 2 C4 2.66 4 3.32 4 4 C3.00419922 3.80470703 3.00419922 3.80470703 1.98828125 3.60546875 C-3.87295114 2.62591757 -3.87295114 2.62591757 -9.125 5.0625 C-11.33351744 8.52251066 -11.83700493 9.98237632 -11 14 C-9 17 -9 17 -6 19 C-2.42678844 19.43753611 0.57113346 19.05503586 4 18 C3.67 18.99 3.34 19.98 3 21 C-5.93892255 22.59685607 -5.93892255 22.59685607 -10 20.3125 C-12.96477224 16.88448209 -13.87754911 15.12246653 -14.375 10.5625 C-13.93579229 6.39002679 -12.92952192 4.92952192 -10 2 C-6.29873141 -0.46751239 -4.37776468 -0.30721156 0 0 Z " fill="#DDDDDD" transform="translate(25,13)"/>
<path d="M0 0 C2.375 1 2.375 1 4 2 C4 1.34 4 0.68 4 0 C4.99 0 5.98 0 7 0 C6.67 0.99 6.34 1.98 6 3 C4.34385343 3.38218767 2.67542976 3.71395102 1 4 C0.67 3.67 0.34 3.34 0 3 C-4.12795128 2.62418498 -4.12795128 2.62418498 -7.875 4.125 C-9.52854531 6.88090884 -9.39365568 8.85075452 -9 12 C-8.04451019 13.95625978 -8.04451019 13.95625978 -6 15 C-2.38976901 15.73041853 -2.38976901 15.73041853 1 16 C0.67 16.66 0.34 17.32 0 18 C-3.83473284 18.35671933 -5.55342875 18.29771416 -8.8125 16.125 C-11.39266816 13.61855093 -11.91717964 12.74538327 -12.3125 9.1875 C-11.92835642 5.2692355 -10.70743683 3.78706733 -8 1 C-5.2201184 -0.3899408 -3.0813674 -0.18488204 0 0 Z " fill="#191919" transform="translate(25,15)"/>
<path d="M0 0 C2.4375 1 2.4375 1 4 2 C4 2.66 4 3.32 4 4 C3.00419922 3.80470703 3.00419922 3.80470703 1.98828125 3.60546875 C-0.73868662 3.17950443 -3.2395593 2.89431697 -6 3 C-9.20809465 5.40607099 -10.78886048 7.68329071 -13 11 C-12.76683515 6.95847594 -12.5771041 4.66197236 -9.875 1.5625 C-6.28146137 -0.39051013 -4.03995323 -0.44072217 0 0 Z " fill="#E4E4E4" transform="translate(25,13)"/>
<path d="M0 0 C0.598125 0.763125 1.19625 1.52625 1.8125 2.3125 C3.46959332 4.3483575 5.10297674 6.1978279 7 8 C6.01 8.495 6.01 8.495 5 9 C2.5 7.3125 2.5 7.3125 0 5 C-0.3125 2.25 -0.3125 2.25 0 0 Z " fill="#252525" transform="translate(11,27)"/>
<path d="M0 0 C0.66 0 1.32 0 2 0 C2 0.66 2 1.32 2 2 C2.66 2 3.32 2 4 2 C4 2.66 4 3.32 4 4 C3.34 4 2.68 4 2 4 C2 4.66 2 5.32 2 6 C1.34 6 0.68 6 0 6 C0 5.34 0 4.68 0 4 C-0.66 4 -1.32 4 -2 4 C-2 3.34 -2 2.68 -2 2 C-1.34 2 -0.68 2 0 2 C0 1.34 0 0.68 0 0 Z " fill="#000000" transform="translate(35,21)"/>
<path d="M0 0 C0.66 0 1.32 0 2 0 C2 0.66 2 1.32 2 2 C2.66 2 3.32 2 4 2 C4 2.66 4 3.32 4 4 C3.34 4 2.68 4 2 4 C2 4.66 2 5.32 2 6 C1.34 6 0.68 6 0 6 C0 5.34 0 4.68 0 4 C-0.66 4 -1.32 4 -2 4 C-2 3.34 -2 2.68 -2 2 C-1.34 2 -0.68 2 0 2 C0 1.34 0 0.68 0 0 Z " fill="#000000" transform="translate(28,21)"/>
<path d="M0 0 C0.99 0.33 1.98 0.66 3 1 C1.68 2.65 0.36 4.3 -1 6 C-1.99 5.67 -2.98 5.34 -4 5 C-2.68 3.35 -1.36 1.7 0 0 Z " fill="#2A2A2A" transform="translate(14,13)"/>
</svg>
