<?xml version="1.0" encoding="UTF-8"?>
<svg version="1.1" xmlns="http://www.w3.org/2000/svg" width="100" height="100">
<path d="M0 0 C1.07741959 -0.00218285 1.07741959 -0.00218285 2.17660522 -0.00440979 C3.68776527 -0.00275635 5.19894312 0.00874276 6.70996094 0.02954102 C9.02351129 0.05859468 11.33478164 0.05012123 13.6484375 0.03710938 C15.1198028 0.04334457 16.59116088 0.0517338 18.0625 0.0625 C18.75316559 0.05956436 19.44383118 0.05662872 20.15542603 0.05360413 C24.94305176 0.14785403 24.94305176 0.14785403 27.23193359 1.89819336 C27.80935303 2.68915405 27.80935303 2.68915405 28.3984375 3.49609375 C30.24032362 5.54879838 30.24032362 5.54879838 32.3984375 6.49609375 C32.3984375 8.14609375 32.3984375 9.79609375 32.3984375 11.49609375 C32.7284375 11.49609375 33.0584375 11.49609375 33.3984375 11.49609375 C33.8934375 17.93109375 33.8934375 17.93109375 34.3984375 24.49609375 C35.3884375 23.50609375 36.3784375 22.51609375 37.3984375 21.49609375 C41.7914446 20.15094817 46.0519667 20.03969029 50.3359375 21.74609375 C53.3984375 23.49609375 53.3984375 23.49609375 55.3984375 26.49609375 C56.0584375 26.82609375 56.7184375 27.15609375 57.3984375 27.49609375 C57.78775783 29.48595324 58.11731686 31.48808919 58.3984375 33.49609375 C58.7284375 34.48609375 59.0584375 35.47609375 59.3984375 36.49609375 C59.4818179 38.634039 59.50577497 40.77451384 59.49609375 42.9140625 C59.49125977 44.79448242 59.49125977 44.79448242 59.48632812 46.71289062 C59.47375977 48.67838867 59.47375977 48.67838867 59.4609375 50.68359375 C59.45592067 52.01887856 59.45135809 53.35416516 59.44726562 54.68945312 C59.43546445 57.95837848 59.41900047 61.22721366 59.3984375 64.49609375 C58.7384375 64.49609375 58.0784375 64.49609375 57.3984375 64.49609375 C56.0739435 65.98538334 56.0739435 65.98538334 54.8359375 67.87109375 C54.40152344 68.49757813 53.96710938 69.1240625 53.51953125 69.76953125 C52.34892112 71.50178089 52.34892112 71.50178089 51.3984375 73.49609375 C49.4184375 73.49609375 47.4384375 73.49609375 45.3984375 73.49609375 C45.3984375 73.82609375 45.3984375 74.15609375 45.3984375 74.49609375 C40.4484375 74.82609375 35.4984375 75.15609375 30.3984375 75.49609375 C30.7284375 76.81609375 31.0584375 78.13609375 31.3984375 79.49609375 C32.37792672 91.92436674 32.37792672 91.92436674 29.4609375 96.18359375 C28.7803125 96.94671875 28.0996875 97.70984375 27.3984375 98.49609375 C27.0684375 99.15609375 26.7384375 99.81609375 26.3984375 100.49609375 C21.75369768 100.57025442 17.10930251 100.6246999 12.46411133 100.66088867 C10.88397214 100.67597469 9.30387481 100.69644625 7.72387695 100.72241211 C5.45253165 100.75880501 3.18173991 100.77582137 0.91015625 100.7890625 C-0.14937004 100.81228828 -0.14937004 100.81228828 -1.2303009 100.83598328 C-6.14937823 100.83767094 -6.14937823 100.83767094 -8.44604492 99.1027832 C-8.82736572 98.57257568 -9.20868652 98.04236816 -9.6015625 97.49609375 C-11.44344862 95.44338912 -11.44344862 95.44338912 -13.6015625 94.49609375 C-14.92016764 90.89831019 -14.91834512 87.03716188 -15.1640625 83.24609375 C-15.24785156 81.9828125 -15.33164062 80.71953125 -15.41796875 79.41796875 C-15.47855469 78.45375 -15.53914063 77.48953125 -15.6015625 76.49609375 C-16.01792969 76.97433594 -16.43429688 77.45257813 -16.86328125 77.9453125 C-19.66305949 80.44309219 -22.9930379 80.50292808 -26.6015625 80.49609375 C-30.59998376 79.59079082 -32.91764644 78.56342639 -35.6015625 75.49609375 C-36.5915625 74.83609375 -37.5815625 74.17609375 -38.6015625 73.49609375 C-39.2265625 70.55859375 -39.2265625 70.55859375 -39.6015625 67.49609375 C-39.9315625 66.50609375 -40.2615625 65.51609375 -40.6015625 64.49609375 C-40.83402462 60.7501327 -40.78673758 56.99851102 -40.7890625 53.24609375 C-40.80130859 52.22128906 -40.81355469 51.19648437 -40.82617188 50.140625 C-40.83961078 43.17927172 -40.48177051 36.53197288 -36.6015625 30.49609375 C-34.08320225 27.9777335 -32.96401871 27.51700469 -29.3515625 27.30859375 C-27.9903125 27.40140625 -27.9903125 27.40140625 -26.6015625 27.49609375 C-26.6015625 27.16609375 -26.6015625 26.83609375 -26.6015625 26.49609375 C-21.6515625 26.16609375 -16.7015625 25.83609375 -11.6015625 25.49609375 C-11.9315625 24.83609375 -12.2615625 24.17609375 -12.6015625 23.49609375 C-14.23959198 20.2200348 -13.63103604 16.69775036 -13.4765625 13.12109375 C-13.46625 12.3528125 -13.4559375 11.58453125 -13.4453125 10.79296875 C-13.41179688 10.04789063 -13.37828125 9.3028125 -13.34375 8.53515625 C-13.3216748 7.85662598 -13.29959961 7.1780957 -13.27685547 6.47900391 C-11.19700814 0.37180217 -5.62344729 -0.09200715 0 0 Z M30.3984375 7.49609375 C31.3984375 9.49609375 31.3984375 9.49609375 31.3984375 9.49609375 Z M-5.6015625 12.49609375 C-4.6015625 15.49609375 -4.6015625 15.49609375 -4.6015625 15.49609375 Z M-1.6015625 12.49609375 C-1.9315625 13.81609375 -2.2615625 15.13609375 -2.6015625 16.49609375 C-1.9415625 16.49609375 -1.2815625 16.49609375 -0.6015625 16.49609375 C-0.9315625 15.17609375 -1.2615625 13.85609375 -1.6015625 12.49609375 Z M37.3984375 22.49609375 C37.3984375 22.82609375 37.3984375 23.15609375 37.3984375 23.49609375 C41.3584375 23.49609375 45.3184375 23.49609375 49.3984375 23.49609375 C49.3984375 23.16609375 49.3984375 22.83609375 49.3984375 22.49609375 C45.4384375 22.49609375 41.4784375 22.49609375 37.3984375 22.49609375 Z M-9.6015625 24.49609375 C-9.6015625 24.82609375 -9.6015625 25.15609375 -9.6015625 25.49609375 C-4.6515625 25.49609375 0.2984375 25.49609375 5.3984375 25.49609375 C5.3984375 25.16609375 5.3984375 24.83609375 5.3984375 24.49609375 C0.4484375 24.49609375 -4.5015625 24.49609375 -9.6015625 24.49609375 Z M33.3984375 27.49609375 C33.3984375 32.11609375 33.3984375 36.73609375 33.3984375 41.49609375 C33.7284375 41.49609375 34.0584375 41.49609375 34.3984375 41.49609375 C34.3984375 36.87609375 34.3984375 32.25609375 34.3984375 27.49609375 C34.0684375 27.49609375 33.7384375 27.49609375 33.3984375 27.49609375 Z M30.3984375 41.49609375 C31.3984375 43.49609375 31.3984375 43.49609375 31.3984375 43.49609375 Z M32.3984375 42.49609375 C33.3984375 44.49609375 33.3984375 44.49609375 33.3984375 44.49609375 Z M15.76171875 48.73828125 C13.81362305 48.88330078 13.81362305 48.88330078 11.82617188 49.03125 C10.45440751 49.144294 9.08266293 49.25757834 7.7109375 49.37109375 C6.32755116 49.47757032 4.94408777 49.58305093 3.56054688 49.6875 C0.17229035 49.94722698 -3.21484176 50.21716129 -6.6015625 50.49609375 C-2.87322874 52.98164959 -1.3723105 52.60034468 3.03515625 52.25390625 C4.98325195 52.10888672 4.98325195 52.10888672 6.97070312 51.9609375 C8.34246749 51.8478935 9.71421207 51.73460916 11.0859375 51.62109375 C12.46932384 51.51461718 13.85278723 51.40913657 15.23632812 51.3046875 C18.62458465 51.04496052 22.01171676 50.77502621 25.3984375 50.49609375 C21.67010374 48.01053791 20.1691855 48.39184282 15.76171875 48.73828125 Z M-13.6015625 54.49609375 C-12.6015625 56.49609375 -12.6015625 56.49609375 -12.6015625 56.49609375 Z M-14.6015625 56.49609375 C-13.6015625 58.49609375 -13.6015625 58.49609375 -13.6015625 58.49609375 Z M-12.6015625 57.49609375 C-11.6015625 59.49609375 -11.6015625 59.49609375 -11.6015625 59.49609375 Z M-15.6015625 58.49609375 C-15.6015625 63.44609375 -15.6015625 68.39609375 -15.6015625 73.49609375 C-15.2715625 73.49609375 -14.9415625 73.49609375 -14.6015625 73.49609375 C-14.6015625 68.54609375 -14.6015625 63.59609375 -14.6015625 58.49609375 C-14.9315625 58.49609375 -15.2615625 58.49609375 -15.6015625 58.49609375 Z M8.3984375 73.49609375 C8.3984375 74.15609375 8.3984375 74.81609375 8.3984375 75.49609375 C9.0584375 75.16609375 9.7184375 74.83609375 10.3984375 74.49609375 C9.7384375 74.16609375 9.0784375 73.83609375 8.3984375 73.49609375 Z M14.3984375 75.49609375 C14.3984375 75.82609375 14.3984375 76.15609375 14.3984375 76.49609375 C19.0184375 76.49609375 23.6384375 76.49609375 28.3984375 76.49609375 C28.3984375 76.16609375 28.3984375 75.83609375 28.3984375 75.49609375 C23.7784375 75.49609375 19.1584375 75.49609375 14.3984375 75.49609375 Z M-30.6015625 77.49609375 C-30.6015625 77.82609375 -30.6015625 78.15609375 -30.6015625 78.49609375 C-26.6415625 78.49609375 -22.6815625 78.49609375 -18.6015625 78.49609375 C-18.6015625 78.16609375 -18.6015625 77.83609375 -18.6015625 77.49609375 C-22.5615625 77.49609375 -26.5215625 77.49609375 -30.6015625 77.49609375 Z M19.3984375 84.49609375 C20.3984375 86.49609375 20.3984375 86.49609375 20.3984375 86.49609375 Z M23.3984375 85.49609375 C24.3984375 87.49609375 24.3984375 87.49609375 24.3984375 87.49609375 Z M-12.6015625 91.49609375 C-11.6015625 93.49609375 -11.6015625 93.49609375 -11.6015625 93.49609375 Z " fill="#7CB7C0" transform="translate(40.6015625,-0.49609375)"/>
<path d="M0 0 C0.33 0 0.66 0 1 0 C1.495 6.435 1.495 6.435 2 13 C2.99 12.01 3.98 11.02 5 10 C9.3930071 8.65485442 13.6535292 8.54359654 17.9375 10.25 C21 12 21 12 23 15 C23.99 15.495 23.99 15.495 25 16 C25.38932033 17.98985949 25.71887936 19.99199544 26 22 C26.495 23.485 26.495 23.485 27 25 C27.0833804 27.13794525 27.10733747 29.27842009 27.09765625 31.41796875 C27.09282227 33.29838867 27.09282227 33.29838867 27.08789062 35.21679688 C27.07532227 37.18229492 27.07532227 37.18229492 27.0625 39.1875 C27.05748317 40.52278481 27.05292059 41.85807141 27.04882812 43.19335938 C27.03702695 46.46228473 27.02056297 49.73111991 27 53 C26.34 53 25.68 53 25 53 C23.675506 54.48928959 23.675506 54.48928959 22.4375 56.375 C21.78587891 57.31472656 21.78587891 57.31472656 21.12109375 58.2734375 C19.95048362 60.00568714 19.95048362 60.00568714 19 62 C17.02 62 15.04 62 13 62 C13 62.33 13 62.66 13 63 C8.05 63.33 3.1 63.66 -2 64 C-1.67 65.32 -1.34 66.64 -1 68 C-0.02051078 80.42827299 -0.02051078 80.42827299 -2.9375 84.6875 C-3.618125 85.450625 -4.29875 86.21375 -5 87 C-5.33 87.66 -5.66 88.32 -6 89 C-10.64473982 89.07416067 -15.28913499 89.12860615 -19.93432617 89.16479492 C-21.51446536 89.17988094 -23.09456269 89.2003525 -24.67456055 89.22631836 C-26.94590585 89.26271126 -29.21669759 89.27972762 -31.48828125 89.29296875 C-32.54780754 89.31619453 -32.54780754 89.31619453 -33.6287384 89.33988953 C-38.54781573 89.34157719 -38.54781573 89.34157719 -40.84448242 87.60668945 C-41.22580322 87.07648193 -41.60712402 86.54627441 -42 86 C-43.84188612 83.94729537 -43.84188612 83.94729537 -46 83 C-45.98052861 78.12451567 -45.92865956 73.25082355 -45.84741211 68.37597656 C-45.82428871 66.71950051 -45.80984968 65.06287862 -45.80444336 63.40625 C-45.79511157 61.01731079 -45.75403536 58.63064721 -45.70703125 56.2421875 C-45.7109639 55.50757294 -45.71489655 54.77295837 -45.71894836 54.01608276 C-45.55670686 48.23220022 -44.01859398 45.87609579 -40 42 C-36.76149868 39.74431521 -33.77173353 39.68056853 -29.87890625 39.5078125 C-28.10483398 39.40919922 -28.10483398 39.40919922 -26.29492188 39.30859375 C-23.81090917 39.18640788 -21.32651203 39.07179737 -18.84179688 38.96484375 C-17.65779297 38.89652344 -16.47378906 38.82820313 -15.25390625 38.7578125 C-14.17439697 38.7077002 -13.0948877 38.65758789 -11.98266602 38.60595703 C-7.55601983 37.70664167 -5.3045804 35.33016041 -2.21948242 32.18457031 C-0.49815232 29.10099439 -0.56278818 26.56360233 -0.48828125 23.046875 C-0.47033005 22.38665344 -0.45237885 21.72643188 -0.43388367 21.04620361 C-0.37991191 18.94753311 -0.34592957 16.84908823 -0.3125 14.75 C-0.27931505 13.32288536 -0.24482429 11.89580044 -0.20898438 10.46875 C-0.1241953 6.97938348 -0.05732112 3.48993809 0 0 Z M5 11 C5 11.33 5 11.66 5 12 C8.96 12 12.92 12 17 12 C17 11.67 17 11.34 17 11 C13.04 11 9.08 11 5 11 Z M1 16 C1 20.62 1 25.24 1 30 C1.33 30 1.66 30 2 30 C2 25.38 2 20.76 2 16 C1.67 16 1.34 16 1 16 Z M0 31 C1 33 1 33 1 33 Z M-24 62 C-24 62.66 -24 63.32 -24 64 C-23.34 63.67 -22.68 63.34 -22 63 C-22.66 62.67 -23.32 62.34 -24 62 Z M-18 64 C-18 64.33 -18 64.66 -18 65 C-13.38 65 -8.76 65 -4 65 C-4 64.67 -4 64.34 -4 64 C-8.62 64 -13.24 64 -18 64 Z M-13 73 C-12 75 -12 75 -12 75 Z M-9 74 C-8 76 -8 76 -8 76 Z M-45 80 C-44 82 -44 82 -44 82 Z " fill="#EBB853" transform="translate(73,11)"/>
<path d="M0 0 C-0.01947139 4.87548433 -0.07134044 9.74917645 -0.15258789 14.62402344 C-0.17571129 16.28049949 -0.19015032 17.93712138 -0.19555664 19.59375 C-0.20488843 21.98268921 -0.24596464 24.36935279 -0.29296875 26.7578125 C-0.2890361 27.49242706 -0.28510345 28.22704163 -0.28105164 28.98391724 C-0.44329314 34.76779978 -1.98140602 37.12390421 -6 41 C-9.23850132 43.25568479 -12.22826647 43.31943147 -16.12109375 43.4921875 C-17.30380859 43.55792969 -18.48652344 43.62367187 -19.70507812 43.69140625 C-22.18909083 43.81359212 -24.67348797 43.92820263 -27.15820312 44.03515625 C-28.34220703 44.10347656 -29.52621094 44.17179687 -30.74609375 44.2421875 C-31.82560303 44.2922998 -32.9051123 44.34241211 -34.01733398 44.39404297 C-38.44136904 45.29282786 -40.68626335 47.67059146 -43.78051758 50.80175781 C-45.52701673 53.95000173 -45.43827993 56.58806065 -45.51171875 60.171875 C-45.52966995 60.8542926 -45.54762115 61.53671021 -45.56611633 62.23980713 C-45.62010383 64.4098094 -45.65407583 66.57959325 -45.6875 68.75 C-45.72068352 70.22529074 -45.75517415 71.70055269 -45.79101562 73.17578125 C-45.87582158 76.78364427 -45.94268837 80.39158362 -46 84 C-46.33 84 -46.66 84 -47 84 C-47.495 77.07 -47.495 77.07 -48 70 C-48.99 70.99 -49.98 71.98 -51 73 C-56.3393882 74.1379024 -59.927573 74.35926837 -65 72 C-66.875 70.5 -66.875 70.5 -68 69 C-68 68.34 -68 67.68 -68 67 C-63.05 66.67 -58.1 66.34 -53 66 C-52.97421875 64.68644531 -52.9484375 63.37289062 -52.921875 62.01953125 C-52.86558171 60.2838215 -52.80823465 58.5481457 -52.75 56.8125 C-52.72873047 55.51602539 -52.72873047 55.51602539 -52.70703125 54.19335938 C-52.55828098 50.3109772 -52.28994628 47.57149938 -50.515625 44.07421875 C-42.86453951 37.76563739 -33.11187992 38.5538325 -23.70703125 38.47265625 C-17.77577608 38.345183 -13.11738739 38.16196294 -8 35 C-5.8358357 30.97792959 -5.7662802 27.46207627 -5.8046875 22.94921875 C-5.80893234 21.96100883 -5.80893234 21.96100883 -5.81326294 20.95283508 C-5.82439076 18.86419938 -5.84948052 16.77600444 -5.875 14.6875 C-5.88503941 13.26498018 -5.89416358 11.8424536 -5.90234375 10.41992188 C-5.92430553 6.94647319 -5.95878354 3.47327967 -6 0 C-3.50907189 -1.24546405 -2.58919267 -0.7767578 0 0 Z M-2 1 C-1 3 -1 3 -1 3 Z M-46 48 C-45 50 -45 50 -45 50 Z M-47 50 C-46 52 -46 52 -46 52 Z M-48 52 C-48 56.95 -48 61.9 -48 67 C-47.67 67 -47.34 67 -47 67 C-47 62.05 -47 57.1 -47 52 C-47.33 52 -47.66 52 -48 52 Z M-63 71 C-63 71.33 -63 71.66 -63 72 C-59.04 72 -55.08 72 -51 72 C-51 71.67 -51 71.34 -51 71 C-54.96 71 -58.92 71 -63 71 Z " fill="#56939B" transform="translate(73,6)"/>
<path d="M0 0 C0.33 0 0.66 0 1 0 C1.42397033 4.23970328 1.43792242 6.98342177 -1.25 10.3125 C-5.470006 14.43659677 -8.25838595 15.23201205 -14.12109375 15.4921875 C-15.30380859 15.55792969 -16.48652344 15.62367187 -17.70507812 15.69140625 C-20.18909083 15.81359212 -22.67348797 15.92820263 -25.15820312 16.03515625 C-26.34220703 16.10347656 -27.52621094 16.17179687 -28.74609375 16.2421875 C-29.82560303 16.2922998 -30.9051123 16.34241211 -32.01733398 16.39404297 C-36.44136904 17.29282786 -38.68626335 19.67059146 -41.78051758 22.80175781 C-43.52701673 25.95000173 -43.43827993 28.58806065 -43.51171875 32.171875 C-43.52966995 32.8542926 -43.54762115 33.53671021 -43.56611633 34.23980713 C-43.62010383 36.4098094 -43.65407583 38.57959325 -43.6875 40.75 C-43.72068352 42.22529074 -43.75517415 43.70055269 -43.79101562 45.17578125 C-43.87582158 48.78364427 -43.94268837 52.39158362 -44 56 C-44.33 56 -44.66 56 -45 56 C-45.33 51.38 -45.66 46.76 -46 42 C-46.99 42.99 -47.98 43.98 -49 45 C-54.27998033 46.12524171 -58.00289639 46.43761152 -63 44 C-63.495 42.515 -63.495 42.515 -64 41 C-63.09636719 40.93941406 -62.19273438 40.87882812 -61.26171875 40.81640625 C-60.08222656 40.73261719 -58.90273438 40.64882812 -57.6875 40.5625 C-56.51574219 40.48128906 -55.34398437 40.40007812 -54.13671875 40.31640625 C-50.97409042 40.1132629 -50.97409042 40.1132629 -48 39 C-48.06960937 37.77023438 -48.13921875 36.54046875 -48.2109375 35.2734375 C-48.26723949 33.64067987 -48.32183702 32.00786285 -48.375 30.375 C-48.42527344 29.56675781 -48.47554687 28.75851563 -48.52734375 27.92578125 C-48.63298512 23.59448497 -48.41058711 20.81433358 -45.4140625 17.5390625 C-38.2198045 11.51393702 -28.57318792 12.63427043 -19.71679688 12.52148438 C-14.01773613 12.37553716 -9.98171009 12.06755547 -5 9 C-4.34 9 -3.68 9 -3 9 C-2.01 6.03 -1.02 3.06 0 0 Z M-44 20 C-43 22 -43 22 -43 22 Z M-45 22 C-44 24 -44 24 -44 24 Z M-46 24 C-46 28.95 -46 33.9 -46 39 C-45.67 39 -45.34 39 -45 39 C-45 34.05 -45 29.1 -45 24 C-45.33 24 -45.66 24 -46 24 Z M-61 43 C-61 43.33 -61 43.66 -61 44 C-57.04 44 -53.08 44 -49 44 C-49 43.67 -49 43.34 -49 43 C-52.96 43 -56.92 43 -61 43 Z " fill="#5D6144" transform="translate(71,34)"/>
<path d="M0 0 C2.74362012 2.74362012 2.33130133 4.42199614 2.375 8.25 C2.30596226 13.92992279 1.75397072 16.79100253 -2 21 C-2.33 21.66 -2.66 22.32 -3 23 C-7.64473982 23.07416067 -12.28913499 23.12860615 -16.93432617 23.16479492 C-18.51446536 23.17988094 -20.09456269 23.2003525 -21.67456055 23.22631836 C-23.94590585 23.26271126 -26.21669759 23.27972762 -28.48828125 23.29296875 C-29.54780754 23.31619453 -29.54780754 23.31619453 -30.6287384 23.33988953 C-35.55691778 23.34158031 -35.55691778 23.34158031 -37.96948242 21.48168945 C-38.30955322 20.99273193 -38.64962402 20.50377441 -39 20 C-38 19 -38 19 -35.70263672 18.93408203 C-34.70506348 18.95841309 -33.70749023 18.98274414 -32.6796875 19.0078125 C-31.04 19.03294922 -31.04 19.03294922 -29.3671875 19.05859375 C-27.06232824 19.10242217 -24.75760676 19.15433795 -22.453125 19.21484375 C-16.19338792 19.29547268 -11.44531756 19.24305616 -6 16 C-5.34 15.01 -4.68 14.02 -4 13 C-4.88214887 10.11785113 -4.88214887 10.11785113 -6 8 C-6.61875 8.495 -7.2375 8.99 -7.875 9.5 C-10 11 -10 11 -12 11 C-11.8125 8.6875 -11.8125 8.6875 -11 6 C-7.5475492 3.23803936 -4.34181831 2.50486259 0 2 C0 1.34 0 0.68 0 0 Z M-10 7 C-9 9 -9 9 -9 9 Z " fill="#E1A33C" transform="translate(70,77)"/>
<path d="M0 0 C0.66 0.66 1.32 1.32 2 2 C0.76276024 5.71171927 -1.2553349 7.2553349 -4 10 C-5.29519995 12.16620544 -5.29519995 12.16620544 -6 14 C-7.98 14 -9.96 14 -12 14 C-12 14.33 -12 14.66 -12 15 C-23.88 15.66 -35.76 16.32 -48 17 C-48.33 16.34 -48.66 15.68 -49 15 C-49.66 15 -50.32 15 -51 15 C-50.625 13.0625 -50.625 13.0625 -50 11 C-46.66163838 9.33081919 -42.90346231 9.82065205 -39.23046875 9.7890625 C-37.4368399 9.76098969 -35.64322023 9.7323252 -33.84960938 9.703125 C-31.01880185 9.66188892 -28.18816495 9.62500619 -25.35717773 9.59863281 C-22.62707994 9.57098625 -19.89776426 9.52511019 -17.16796875 9.4765625 C-16.32509811 9.47330963 -15.48222748 9.47005676 -14.61381531 9.46670532 C-9.95258106 9.36945032 -6.75218577 9.07017426 -3 6 C-1.17370206 2.93319201 -1.17370206 2.93319201 0 0 Z " fill="#8F491F" transform="translate(98,59)"/>
<path d="M0 0 C0.66 0.2475 1.32 0.495 2 0.75 C2.7425 0.935625 3.485 1.12125 4.25 1.3125 C4.8275 1.456875 5.405 1.60125 6 1.75 C5 4.75 5 4.75 2.1875 6.5625 C-1.73233451 9.25258251 -4.40855463 11.87602435 -5.39892578 16.68847656 C-6.0303655 22.46502951 -5.9533985 28.02091195 -5.5625 33.8125 C-5.51029297 34.67810547 -5.45808594 35.54371094 -5.40429688 36.43554688 C-5.2763539 38.54079032 -5.13916029 40.64546828 -5 42.75 C-8 41.75 -8 41.75 -9.17089844 39.51708984 C-10.01920684 36.68589803 -10.25817771 34.42409157 -10.265625 31.4765625 C-10.26820312 30.4865625 -10.27078125 29.4965625 -10.2734375 28.4765625 C-10.26570312 27.45304687 -10.25796875 26.42953125 -10.25 25.375 C-10.25773438 24.35921875 -10.26546875 23.3434375 -10.2734375 22.296875 C-10.25549971 15.39082477 -9.84629075 8.73311894 -6 2.75 C-2.79389313 -0.34923664 -2.79389313 -0.34923664 0 0 Z " fill="#A7DAE1" transform="translate(10,27.25)"/>
<path d="M0 0 C2.23413013 3.35119519 2.23847762 4.4177755 2.1953125 8.32421875 C2.18886719 9.35224609 2.18242188 10.38027344 2.17578125 11.43945312 C2.15902344 12.51130859 2.14226562 13.58316406 2.125 14.6875 C2.11597656 15.77095703 2.10695312 16.85441406 2.09765625 17.97070312 C2.0740734 20.6473571 2.04116126 23.32356797 2 26 C1.01 26.495 1.01 26.495 0 27 C-0.433125 27.94875 -0.86625 28.8975 -1.3125 29.875 C-3.28227396 33.52272955 -4.25492849 34.31587323 -8 36 C-11.05597731 36.44450408 -14.0834574 36.46465853 -17.16796875 36.4765625 C-18.48200432 36.49993179 -18.48200432 36.49993179 -19.82258606 36.52377319 C-22.61088215 36.57116809 -25.39892918 36.59902177 -28.1875 36.625 C-30.98660773 36.66149236 -33.78557433 36.7020825 -36.58454895 36.74765015 C-38.32395662 36.77487431 -40.06346792 36.7962267 -41.80302429 36.81118774 C-46.03621991 36.74871742 -46.03621991 36.74871742 -50 38 C-50.33 38.99 -50.66 39.98 -51 41 C-50.01 41.33 -49.02 41.66 -48 42 C-49.9375 42.5625 -49.9375 42.5625 -52 43 C-53 42 -53 42 -53.1875 39.5625 C-53 37 -53 37 -51 35 C-48.42175476 34.74198728 -45.94338597 34.60231942 -43.359375 34.55078125 C-42.59957336 34.52904343 -41.83977173 34.5073056 -41.0569458 34.48490906 C-39.44644951 34.4409551 -37.83581731 34.40176366 -36.22509766 34.36694336 C-33.77330206 34.31301256 -31.32239391 34.24271567 -28.87109375 34.16992188 C-27.30471266 34.12922819 -25.73830654 34.08948446 -24.171875 34.05078125 C-23.44353455 34.03002029 -22.71519409 34.00925934 -21.96478271 33.98786926 C-17.85097058 33.90698909 -14.03342393 34.18469138 -10 35 C-10 34.34 -10 33.68 -10 33 C-9.1028125 32.7215625 -9.1028125 32.7215625 -8.1875 32.4375 C-5.00528806 30.34633215 -4.03847464 27.53592037 -3 24 C-2.52719944 20.52319883 -2.4008278 17.06785192 -2.3125 13.5625 C-2.27833984 12.64017578 -2.24417969 11.71785156 -2.20898438 10.76757812 C-2.12717006 8.51184049 -2.05780878 6.25645881 -2 4 C-1.34 4 -0.68 4 0 4 C0 2.68 0 1.36 0 0 Z " fill="#DC9B35" transform="translate(98,33)"/>
<path d="M0 0 C1.08861328 0.0009668 1.08861328 0.0009668 2.19921875 0.00195312 C7.12216798 0.04144202 11.8760555 0.49831102 16.75 1.1875 C13.16867741 4.67580123 9.55969732 4.65912384 4.8125 4.75 C-1.05398641 4.89518344 -5.63499863 5.2988879 -10.5 8.8125 C-12.94465515 12.13024627 -13.01993098 15.20367337 -13.25 19.1875 C-13.34023438 20.38632813 -13.43046875 21.58515625 -13.5234375 22.8203125 C-13.78167887 26.2751633 -14.02180275 29.73055437 -14.25 33.1875 C-14.58 33.1875 -14.91 33.1875 -15.25 33.1875 C-15.33725659 28.9584638 -15.3904789 24.72965988 -15.4375 20.5 C-15.46263672 19.30181641 -15.48777344 18.10363281 -15.51367188 16.86914062 C-15.52333984 15.71220703 -15.53300781 14.55527344 -15.54296875 13.36328125 C-15.5586792 12.30020752 -15.57438965 11.23713379 -15.59057617 10.1418457 C-15.20154634 6.76718625 -14.22555842 4.92171907 -12.25 2.1875 C-8.66204003 -0.60406699 -4.34005123 -0.07170519 0 0 Z " fill="#F3C86B" transform="translate(45.25,50.8125)"/>
<path d="M0 0 C0.33 0 0.66 0 1 0 C1.04898438 0.92683594 1.09796875 1.85367187 1.1484375 2.80859375 C1.22320312 4.00613281 1.29796875 5.20367187 1.375 6.4375 C1.44460937 7.63246094 1.51421875 8.82742187 1.5859375 10.05859375 C1.72257812 11.02925781 1.85921875 11.99992187 2 13 C2.66 13.33 3.32 13.66 4 14 C4.56289529 30.01124385 4.56289529 30.01124385 1 37 C0.34 37.66 -0.32 38.32 -1 39 C-0.67 39.66 -0.34 40.32 0 41 C-5.36439644 43.68219822 -9.01006953 44.3152595 -15 44 C-14.67 43.34 -14.34 42.68 -14 42 C-15.65 41.67 -17.3 41.34 -19 41 C-19 40.34 -19 39.68 -19 39 C-18.33613281 38.97421875 -17.67226563 38.9484375 -16.98828125 38.921875 C-10.23945236 38.48837358 -7.08412133 37.28734046 -2.40307617 32.29785156 C-0.48054097 29.14926947 -0.56610981 26.72038296 -0.48828125 23.046875 C-0.47033005 22.38665344 -0.45237885 21.72643188 -0.43388367 21.04620361 C-0.37991191 18.94753311 -0.34592957 16.84908823 -0.3125 14.75 C-0.27931505 13.32288536 -0.24482429 11.89580044 -0.20898438 10.46875 C-0.1241953 6.97938348 -0.05732112 3.48993809 0 0 Z M1 16 C1 20.62 1 25.24 1 30 C1.33 30 1.66 30 2 30 C2 25.38 2 20.76 2 16 C1.67 16 1.34 16 1 16 Z M0 31 C1 33 1 33 1 33 Z " fill="#B59657" transform="translate(73,11)"/>
<path d="M0 0 C1.1953125 2.0546875 1.1953125 2.0546875 2 4 C1.31292969 4.12375 0.62585938 4.2475 -0.08203125 4.375 C-5.34460823 5.44476026 -5.34460823 5.44476026 -9.33203125 8.734375 C-10.68216928 12.16625295 -11.00735133 14.79416268 -10.875 18.5 C-11.04498394 23.25955018 -13.0497573 26.33454695 -16 30 C-16.66 30.33 -17.32 30.66 -18 31 C-18.66 30.34 -19.32 29.68 -20 29 C-19.54625 28.649375 -19.0925 28.29875 -18.625 27.9375 C-14.30928087 22.79183488 -14.7419601 15.91259671 -14.875 9.5625 C-14.88853516 8.32209961 -14.88853516 8.32209961 -14.90234375 7.05664062 C-14.92568488 5.03763292 -14.96154712 3.01877644 -15 1 C-5.51425971 -1.54399272 -5.51425971 -1.54399272 0 0 Z M-13 1 C-13 1.33 -13 1.66 -13 2 C-9.04 2 -5.08 2 -1 2 C-1 1.67 -1 1.34 -1 1 C-4.96 1 -8.92 1 -13 1 Z " fill="#E5B76B" transform="translate(91,21)"/>
<path d="M0 0 C1.2065625 0.0309375 1.2065625 0.0309375 2.4375 0.0625 C1.83888258 2.41421131 1.16825648 4.7484378 0.4375 7.0625 C-0.5525 7.5575 -0.5525 7.5575 -1.5625 8.0625 C-1.2325 8.7225 -0.9025 9.3825 -0.5625 10.0625 C2.4774648 10.75587792 2.4774648 10.75587792 6 11.1875 C7.19753906 11.35507812 8.39507812 11.52265625 9.62890625 11.6953125 C10.55574219 11.81648438 11.48257813 11.93765625 12.4375 12.0625 C13 14 13 14 13.4375 16.0625 C12.4375 17.0625 12.4375 17.0625 9.01928711 17.17602539 C7.50113012 17.17586628 5.98296771 17.17017226 4.46484375 17.16015625 C3.66720108 17.1587413 2.86955841 17.15732635 2.04774475 17.15586853 C-0.50987435 17.15025316 -3.06740718 17.13769812 -5.625 17.125 C-7.35481645 17.11998698 -9.08463426 17.11542373 -10.81445312 17.11132812 C-15.06383553 17.10027875 -19.31315312 17.08300386 -23.5625 17.0625 C-23.5625 16.7325 -23.5625 16.4025 -23.5625 16.0625 C-18.6125 15.7325 -13.6625 15.4025 -8.5625 15.0625 C-7.9025 12.7525 -7.2425 10.4425 -6.5625 8.0625 C-3.57533691 0.08720334 -3.57533691 0.08720334 0 0 Z M-2.5625 2.0625 C-1.5625 5.0625 -1.5625 5.0625 -1.5625 5.0625 Z M-6.5625 14.0625 C-6.5625 14.3925 -6.5625 14.7225 -6.5625 15.0625 C-1.6125 15.0625 3.3375 15.0625 8.4375 15.0625 C8.4375 14.7325 8.4375 14.4025 8.4375 14.0625 C3.4875 14.0625 -1.4625 14.0625 -6.5625 14.0625 Z " fill="#3E6D70" transform="translate(37.5625,9.9375)"/>
<path d="M0 0 C0.66 0 1.32 0 2 0 C2.1875 2.375 2.1875 2.375 2 5 C-1.7743418 7.51622787 -4.60221151 7.16314837 -8.94921875 6.9765625 C-9.72183548 6.95153656 -10.49445221 6.92651062 -11.29048157 6.90072632 C-13.7566054 6.81859648 -16.22191988 6.72198125 -18.6875 6.625 C-20.35999305 6.56675317 -22.03251925 6.50945004 -23.70507812 6.453125 C-27.80385037 6.3130284 -31.901956 6.15993909 -36 6 C-36 5.34 -36 4.68 -36 4 C-37.65 4 -39.3 4 -41 4 C-41 3.67 -41 3.34 -41 3 C-27.47 2.67 -13.94 2.34 0 2 C0 1.34 0 0.68 0 0 Z " fill="#86B9C5" transform="translate(52,25)"/>
<path d="M0 0 C0.66 0 1.32 0 2 0 C1.37498605 1.68272986 0.69822617 3.34630643 0 5 C-0.55010742 6.30614258 -0.55010742 6.30614258 -1.11132812 7.63867188 C-3 10 -3 10 -6.32226562 10.61523438 C-7.68347344 10.63469826 -9.04527957 10.62576636 -10.40625 10.59375 C-11.48791443 10.59381042 -11.48791443 10.59381042 -12.59143066 10.59387207 C-14.11459071 10.5885155 -15.63774991 10.57092622 -17.16064453 10.54199219 C-19.49206992 10.50014235 -21.82060624 10.50092115 -24.15234375 10.5078125 C-25.63283257 10.4973194 -27.1133065 10.48438063 -28.59375 10.46875 C-29.2906897 10.46854858 -29.98762939 10.46834717 -30.70568848 10.46813965 C-33.6999551 10.39492793 -35.55670143 10.3453759 -37.96289062 8.47070312 C-38.30513672 7.98537109 -38.64738281 7.50003906 -39 7 C-34.25 5.875 -34.25 5.875 -32 7 C-28.44360846 7.26834554 -24.87787607 7.23163361 -21.3125 7.25 C-20.33087891 7.270625 -19.34925781 7.29125 -18.33789062 7.3125 C-12.39856321 7.34436762 -8.26146957 6.78921279 -3 4 C-2.34 3.67 -1.68 3.34 -1 3 C-0.67 2.01 -0.34 1.02 0 0 Z " fill="#9B4D15" transform="translate(70,90)"/>
<path d="M0 0 C1.11181641 0.01289062 2.22363281 0.02578125 3.36914062 0.0390625 C5.09487305 0.08933594 5.09487305 0.08933594 6.85546875 0.140625 C8.02529297 0.15867187 9.19511719 0.17671875 10.40039062 0.1953125 C13.28208655 0.2423606 16.16210672 0.30808791 19.04296875 0.390625 C19.04296875 1.050625 19.04296875 1.710625 19.04296875 2.390625 C17.98078125 2.43960937 16.91859375 2.48859375 15.82421875 2.5390625 C3.49001502 2.39014513 3.49001502 2.39014513 -6.89453125 7.453125 C-8.31947846 11.39268493 -8.69398587 15.22725162 -8.95703125 19.390625 C-9.28703125 19.390625 -9.61703125 19.390625 -9.95703125 19.390625 C-10.26060199 16.97408172 -10.52547429 14.5632822 -10.76953125 12.140625 C-10.85912109 11.45871094 -10.94871094 10.77679688 -11.04101562 10.07421875 C-11.2265625 8.0625 -11.2265625 8.0625 -10.95703125 4.390625 C-7.42114751 0.75491212 -5.00961327 -0.1027613 0 0 Z " fill="#8FC6D2" transform="translate(38.95703125,-0.39062499999999994)"/>
<path d="M0 0 C0.66 0.33 1.32 0.66 2 1 C1.88978405 5.54215151 1.75923153 10.08349975 1.625 14.625 C1.5940625 15.91019531 1.563125 17.19539063 1.53125 18.51953125 C1.49257812 19.76347656 1.45390625 21.00742187 1.4140625 22.2890625 C1.3826416 23.43068848 1.3512207 24.57231445 1.31884766 25.74853516 C0.99089154 29.092884 0.1834072 31.865009 -1 35 C-1.33 35 -1.66 35 -2 35 C-2.04954711 30.94323508 -2.085789 26.88658806 -2.10986328 22.82958984 C-2.11990253 21.45032685 -2.13353677 20.07108504 -2.15087891 18.69189453 C-2.17521754 16.7061486 -2.18543255 14.7202455 -2.1953125 12.734375 C-2.20578613 11.54038086 -2.21625977 10.34638672 -2.22705078 9.11621094 C-2.00743565 6.10205223 -1.48597781 4.56355044 0 2 C0 1.34 0 0.68 0 0 Z " fill="#4D8790" transform="translate(71,5)"/>
<path d="M0 0 C1.32 0.33 2.64 0.66 4 1 C1.36 2.98 -1.28 4.96 -4 7 C-2 3 -2 3 0 0 Z M-5 7 C-4 9 -4 9 -4.9609375 12.40625 C-6.41327065 17.80551208 -5.98791985 22.96910145 -5.625 28.5 C-5.56828125 29.51320313 -5.5115625 30.52640625 -5.453125 31.5703125 C-5.31289448 34.04771836 -5.16162278 36.52391344 -5 39 C-5.99 38.67 -6.98 38.34 -8 38 C-9.125 33.25 -9.125 33.25 -8 31 C-7.92823318 29.59803524 -7.91607497 28.19269943 -7.9375 26.7890625 C-7.94523438 25.95632812 -7.95296875 25.12359375 -7.9609375 24.265625 C-7.98686362 22.51301912 -8.01290425 20.76041493 -8.0390625 19.0078125 C-8.04679688 18.1725 -8.05453125 17.3371875 -8.0625 16.4765625 C-8.07410156 15.71424316 -8.08570313 14.95192383 -8.09765625 14.16650391 C-7.99765426 11.94795973 -7.73092816 10.0979707 -7 8 C-6.34 7.67 -5.68 7.34 -5 7 Z " fill="#99CFD6" transform="translate(10,31)"/>
<path d="M0 0 C0 0.66 0 1.32 0 2 C0.66 2.33 1.32 2.66 2 3 C1.195625 3.66 0.39125 4.32 -0.4375 5 C-3.59443056 8.69591871 -3.79240156 11.3540901 -4 16 C-4.18569354 18.50013483 -4.37330683 21.00012756 -4.5625 23.5 C-4.71042449 25.6665249 -4.85696335 27.83314691 -5 30 C-5.33 30 -5.66 30 -6 30 C-6.11611395 25.75022954 -6.18722349 21.50086663 -6.25 17.25 C-6.28351562 16.0434375 -6.31703125 14.836875 -6.3515625 13.59375 C-6.36445313 12.43359375 -6.37734375 11.2734375 -6.390625 10.078125 C-6.41157227 9.00981445 -6.43251953 7.94150391 -6.45410156 6.84082031 C-5.86084294 3.12944539 -4.09333415 0 0 0 Z " fill="#F3D172" transform="translate(36,54)"/>
<path d="M0 0 C0.33 0 0.66 0 1 0 C3.032222 17.70648867 3.032222 17.70648867 -1.67578125 23.75 C-3 25 -3 25 -5 26 C-5.66 25.34 -6.32 24.68 -7 24 C-6.54625 23.649375 -6.0925 23.29875 -5.625 22.9375 C-1.58700683 18.12296968 -1.65705721 11.45822369 -1.24609375 5.453125 C-1 3 -1 3 0 0 Z " fill="#F2CC6C" transform="translate(78,26)"/>
<path d="M0 0 C1.1446875 0.1546875 1.1446875 0.1546875 2.3125 0.3125 C1.71388258 2.66421131 1.04325648 4.9984378 0.3125 7.3125 C-0.6775 7.8075 -0.6775 7.8075 -1.6875 8.3125 C-1.3575 8.9725 -1.0275 9.6325 -0.6875 10.3125 C1.66849235 10.78001788 1.66849235 10.78001788 4.375 10.9375 C5.75365234 11.04964844 5.75365234 11.04964844 7.16015625 11.1640625 C7.87042969 11.21304687 8.58070312 11.26203125 9.3125 11.3125 C9.3125 11.6425 9.3125 11.9725 9.3125 12.3125 C4.0325 12.3125 -1.2475 12.3125 -6.6875 12.3125 C-5.01182432 0.58277027 -5.01182432 0.58277027 0 0 Z M-2.6875 2.3125 C-1.6875 5.3125 -1.6875 5.3125 -1.6875 5.3125 Z " fill="#589299" transform="translate(37.6875,9.6875)"/>
<path d="M0 0 C-1.04978027 0.02505615 -2.09956055 0.0501123 -3.18115234 0.07592773 C-7.06881324 0.16996267 -10.95629381 0.2701928 -14.84375 0.37231445 C-16.52762642 0.41567817 -18.21154723 0.4573522 -19.89550781 0.49731445 C-22.31328724 0.55498234 -24.73084295 0.6186865 -27.1484375 0.68359375 C-28.28132706 0.70866249 -28.28132706 0.70866249 -29.43710327 0.73423767 C-33.34739799 0.77555107 -33.34739799 0.77555107 -37 2 C-37.33 2.99 -37.66 3.98 -38 5 C-37.01 5.33 -36.02 5.66 -35 6 C-36.9375 6.5625 -36.9375 6.5625 -39 7 C-40 6 -40 6 -40.1875 3.5625 C-40 1 -40 1 -38 -1 C-35.47093031 -1.26993787 -33.04366942 -1.42166677 -30.5078125 -1.484375 C-29.39428909 -1.52053925 -29.39428909 -1.52053925 -28.25827026 -1.55743408 C-26.68648076 -1.60575874 -25.11453285 -1.64914443 -23.54248047 -1.68798828 C-21.14088375 -1.74959256 -18.74070301 -1.83269906 -16.33984375 -1.91796875 C-14.81253722 -1.96224083 -13.28519349 -2.00525091 -11.7578125 -2.046875 C-11.04102325 -2.07279724 -10.32423401 -2.09871948 -9.58572388 -2.12542725 C-5.86648963 -2.20112242 -3.15403462 -2.07558449 0 0 Z " fill="#E1A23A" transform="translate(85,69)"/>
<path d="M0 0 C-0.33 0.99 -0.66 1.98 -1 3 C-11.83180428 5.78287462 -11.83180428 5.78287462 -17 3 C-17.33 2.01 -17.66 1.02 -18 0 C-15.93831015 -0.19620767 -13.87559002 -0.38160753 -11.8125 -0.5625 C-10.08966797 -0.71912109 -10.08966797 -0.71912109 -8.33203125 -0.87890625 C-5.31368801 -0.98859985 -2.91076064 -0.74002389 0 0 Z M-15 2 C-15 2.33 -15 2.66 -15 3 C-11.04 3 -7.08 3 -3 3 C-3 2.67 -3 2.34 -3 2 C-6.96 2 -10.92 2 -15 2 Z " fill="#213C3B" transform="translate(25,75)"/>
<path d="M0 0 C0.33 0 0.66 0 1 0 C1 7.59 1 15.18 1 23 C0.34 23.33 -0.32 23.66 -1 24 C-2.04808041 25.97522846 -3.0520411 27.97481509 -4 30 C-4.33 29.34 -4.66 28.68 -5 28 C-4.35773631 26.32377818 -3.68669224 24.6585162 -3 23 C-1.34039841 15.42874568 -0.57742914 7.71931592 0 0 Z " fill="#D08B2E" transform="translate(99,36)"/>
<path d="M0 0 C1.125 3.75 1.125 3.75 0 6 C-0.2322646 8.71262116 -0.41936235 11.40773126 -0.5625 14.125 C-0.60568359 14.87910156 -0.64886719 15.63320312 -0.69335938 16.41015625 C-0.7994832 18.27321888 -0.90025001 20.13658524 -1 22 C-2.32 21.67 -3.64 21.34 -5 21 C-4.34 21 -3.68 21 -3 21 C-3.03480469 19.73542969 -3.06960937 18.47085938 -3.10546875 17.16796875 C-3.13360677 15.50782577 -3.16090691 13.84766844 -3.1875 12.1875 C-3.21263672 11.35412109 -3.23777344 10.52074219 -3.26367188 9.66210938 C-3.27333984 8.85966797 -3.28300781 8.05722656 -3.29296875 7.23046875 C-3.3086792 6.49207764 -3.32438965 5.75368652 -3.34057617 4.99291992 C-2.91074167 2.47769478 -1.92536938 1.60558484 0 0 Z " fill="#396365" transform="translate(26,52)"/>
<path d="M0 0 C0 0.33 0 0.66 0 1 C-0.57443848 1.05422119 -1.14887695 1.10844238 -1.74072266 1.16430664 C-4.3732458 1.43137805 -6.99792569 1.74644725 -9.625 2.0625 C-10.52863281 2.14693359 -11.43226562 2.23136719 -12.36328125 2.31835938 C-17.38422701 2.95972106 -20.28328777 3.69508573 -23.6484375 7.62109375 C-24.45950792 8.72795802 -25.25397487 9.84829247 -26 11 C-26.33 10.01 -26.66 9.02 -27 8 C-24.53226333 3.51320606 -21.51151462 1.89905712 -16.79296875 0.4921875 C-11.23716893 -0.48687652 -5.61741182 -0.21574697 0 0 Z " fill="#65A2AB" transform="translate(48,45)"/>
<path d="M0 0 C0.79622772 0.00141495 1.59245544 0.0028299 2.41281128 0.00428772 C4.9601413 0.0098928 7.50738397 0.02244611 10.0546875 0.03515625 C11.77994665 0.0401706 13.50520717 0.04473362 15.23046875 0.04882812 C19.46357541 0.05986388 23.69661664 0.07713189 27.9296875 0.09765625 C27.9296875 0.42765625 27.9296875 0.75765625 27.9296875 1.09765625 C16.0496875 1.42765625 4.1696875 1.75765625 -8.0703125 2.09765625 C-8.4003125 3.08765625 -8.7303125 4.07765625 -9.0703125 5.09765625 C-9.7303125 5.09765625 -10.3903125 5.09765625 -11.0703125 5.09765625 C-10.6953125 3.16015625 -10.6953125 3.16015625 -10.0703125 1.09765625 C-6.89740537 -0.48879732 -3.48205866 -0.02312588 0 0 Z " fill="#BE6719" transform="translate(58.0703125,68.90234375)"/>
<path d="M0 0 C0.66 0 1.32 0 2 0 C2.1875 2.375 2.1875 2.375 2 5 C-1.32004621 7.21336414 -2.07410932 7.20762974 -5.88671875 6.9765625 C-6.82451172 6.925 -7.76230469 6.8734375 -8.72851562 6.8203125 C-9.70498047 6.75585938 -10.68144531 6.69140625 -11.6875 6.625 C-13.16959961 6.53992188 -13.16959961 6.53992188 -14.68164062 6.453125 C-17.12182885 6.31166481 -19.56098591 6.16025726 -22 6 C-22 5.67 -22 5.34 -22 5 C-20.79601562 4.95101563 -19.59203125 4.90203125 -18.3515625 4.8515625 C-16.77601802 4.77653657 -15.20049834 4.70098867 -13.625 4.625 C-12.8309375 4.5940625 -12.036875 4.563125 -11.21875 4.53125 C-6.63332625 4.48183579 -6.63332625 4.48183579 -3 2 C-2.01 2 -1.02 2 0 2 C0 1.34 0 0.68 0 0 Z " fill="#8DD2DC" transform="translate(52,25)"/>
<path d="M0 0 C0.33 0.66 0.66 1.32 1 2 C2.65 2 4.3 2 6 2 C4 3.33333333 2 4.66666667 0 6 C-1.80947254 8.88038487 -2.32828148 11.38719011 -2.625 14.75 C-2.69976563 15.54921875 -2.77453125 16.3484375 -2.8515625 17.171875 C-2.90054687 17.77515625 -2.94953125 18.3784375 -3 19 C-3.33 19 -3.66 19 -4 19 C-4.30357074 16.58345672 -4.56844304 14.1726572 -4.8125 11.75 C-4.90208984 11.06808594 -4.99167969 10.38617188 -5.08398438 9.68359375 C-5.26953125 7.671875 -5.26953125 7.671875 -5 4 C-2.51171875 1.515625 -2.51171875 1.515625 0 0 Z " fill="#B2E4E6" transform="translate(33,0)"/>
<path d="M0 0 C0.66 0.66 1.32 1.32 2 2 C2.66 1.67 3.32 1.34 4 1 C5.20577428 5.94367454 4.6290678 9.20862412 3 14 C1.68 14.33 0.36 14.66 -1 15 C-0.67 10.05 -0.34 5.1 0 0 Z " fill="#93C7D1" transform="translate(28,8)"/>
<path d="M0 0 C0.66 0.66 1.32 1.32 2 2 C1.64477539 3.86816406 1.64477539 3.86816406 1 6 C0.86070644 7.36676632 0.75634699 8.7374567 0.68359375 10.109375 C0.64169922 10.86347656 0.59980469 11.61757813 0.55664062 12.39453125 C0.49766602 13.56048828 0.49766602 13.56048828 0.4375 14.75 C0.39431641 15.54277344 0.35113281 16.33554687 0.30664062 17.15234375 C0.20097009 19.10137815 0.10002034 21.05066748 0 23 C-2 21 -2 21 -2.22705078 18.93701172 C-2.21657715 18.10959473 -2.20610352 17.28217773 -2.1953125 16.4296875 C-2.18886719 15.53378906 -2.18242188 14.63789063 -2.17578125 13.71484375 C-2.15902344 12.77769531 -2.14226562 11.84054688 -2.125 10.875 C-2.11597656 9.93011719 -2.10695313 8.98523437 -2.09765625 8.01171875 C-2.07404522 5.67422708 -2.04111516 3.33723877 -2 1 C-1.34 0.67 -0.68 0.34 0 0 Z " fill="#63A1AB" transform="translate(69,5)"/>
<path d="M0 0 C4.95 0 9.9 0 15 0 C11.12766576 2.58155616 9.46463981 3.12134154 4.875 3.0625 C3.96492188 3.05347656 3.05484375 3.04445313 2.1171875 3.03515625 C1.41851562 3.02355469 0.71984375 3.01195313 0 3 C0 2.01 0 1.02 0 0 Z " fill="#F6CA6B" transform="translate(51,77)"/>
<path d="M0 0 C2 2 2 2 2.1953125 4.6015625 C2.17210938 5.59929687 2.14890625 6.59703125 2.125 7.625 C2.10695313 8.62789062 2.08890625 9.63078125 2.0703125 10.6640625 C2.03550781 11.82035156 2.03550781 11.82035156 2 13 C1.34 13 0.68 13 0 13 C-0.33 14.32 -0.66 15.64 -1 17 C-2.56902561 13.86194878 -1.56136446 10.73381412 -1.0625 7.375 C-0.96259766 6.66859375 -0.86269531 5.9621875 -0.75976562 5.234375 C-0.51208041 3.48878393 -0.25676129 1.74427916 0 0 Z " fill="#C7802B" transform="translate(70,77)"/>
<path d="M0 0 C-1 3 -1 3 -3 4 C-5.3329866 4.04022391 -7.66706666 4.04320247 -10 4 C-9.34 3.34 -8.68 2.68 -8 2 C-9.32 1.34 -10.64 0.68 -12 0 C-10.37585622 -0.19477739 -8.75063577 -0.38059458 -7.125 -0.5625 C-6.22007813 -0.66691406 -5.31515625 -0.77132812 -4.3828125 -0.87890625 C-2 -1 -2 -1 0 0 Z " fill="#E2B564" transform="translate(71,76)"/>
<path d="M0 0 C0.33 0 0.66 0 1 0 C1.33 6.27 1.66 12.54 2 19 C1.01 18.67 0.02 18.34 -1 18 C-1.33 16.35 -1.66 14.7 -2 13 C-1.67 13 -1.34 13 -1 13 C-0.67 8.71 -0.34 4.42 0 0 Z " fill="#90C9D0" transform="translate(3,51)"/>
<path d="M0 0 C0.66 0 1.32 0 2 0 C0.66511872 3.59391114 -0.96022723 6.75490696 -3 10 C-4.65 9.67 -6.3 9.34 -8 9 C-7.34 8.67 -6.68 8.34 -6 8 C-5.67 7.01 -5.34 6.02 -5 5 C-3.66666667 4.33333333 -2.33333333 3.66666667 -1 3 C-0.67 2.01 -0.34 1.02 0 0 Z " fill="#8E4415" transform="translate(70,90)"/>
<path d="M0 0 C1.22589844 0.01353516 1.22589844 0.01353516 2.4765625 0.02734375 C3.41628906 0.04474609 3.41628906 0.04474609 4.375 0.0625 C4.375 0.3925 4.375 0.7225 4.375 1.0625 C3.01375 1.495625 3.01375 1.495625 1.625 1.9375 C-0.94702908 2.82781776 -3.23846766 3.77744413 -5.625 5.0625 C-5.625 4.4025 -5.625 3.7425 -5.625 3.0625 C-6.945 3.3925 -8.265 3.7225 -9.625 4.0625 C-6.41036203 0.70174212 -4.65285589 -0.06646937 0 0 Z " fill="#DBAA68" transform="translate(41.625,50.9375)"/>
<path d="M0 0 C0.33 0 0.66 0 1 0 C1.3690205 9.41002278 1.3690205 9.41002278 -1 14 C-1.99 14 -2.98 14 -4 14 C-2.125 8.125 -2.125 8.125 -1 7 C-0.63239269 4.67182036 -0.29758419 2.3381615 0 0 Z " fill="#E3A63F" transform="translate(69,79)"/>
<path d="M0 0 C0.33 0 0.66 0 1 0 C1 2.97 1 5.94 1 9 C0.01 9.495 0.01 9.495 -1 10 C-2.04808041 11.97522846 -3.0520411 13.97481509 -4 16 C-5 14 -5 14 -4.44140625 12.0546875 C-4.00634766 10.97574219 -4.00634766 10.97574219 -3.5625 9.875 C-3.27503906 9.15054688 -2.98757812 8.42609375 -2.69140625 7.6796875 C-2.46324219 7.12539063 -2.23507813 6.57109375 -2 6 C-1.34 6 -0.68 6 0 6 C0 4.02 0 2.04 0 0 Z " fill="#C47A23" transform="translate(99,50)"/>
<path d="M0 0 C0.66 0 1.32 0 2 0 C2.1875 2.375 2.1875 2.375 2 5 C1.01 5.66 0.02 6.32 -1 7 C-1.99 6.67 -2.98 6.34 -4 6 C-3.34 4.68 -2.68 3.36 -2 2 C-1.34 2 -0.68 2 0 2 C0 1.34 0 0.68 0 0 Z " fill="#8EC7D0" transform="translate(52,25)"/>
<path d="M0 0 C0 0.33 0 0.66 0 1 C-1.65 1.33 -3.3 1.66 -5 2 C-4.67 3.32 -4.34 4.64 -4 6 C-5.65 6 -7.3 6 -9 6 C-9 4.35 -9 2.7 -9 1 C-6.04335481 -0.4783226 -3.25770263 -0.06032783 0 0 Z " fill="#823F20" transform="translate(59,70)"/>
<path d="M0 0 C1.98 0 3.96 0 6 0 C4.75325341 2.49349318 3.30039894 3.46640071 1 5 C0.34 5 -0.32 5 -1 5 C-0.67 3.35 -0.34 1.7 0 0 Z M1 1 C2 3 2 3 2 3 Z " fill="#AE5E1A" transform="translate(59,83)"/>
<path d="M0 0 C0.99 0.33 1.98 0.66 3 1 C2.27683594 1.61488281 2.27683594 1.61488281 1.5390625 2.2421875 C0.90742188 2.78101563 0.27578125 3.31984375 -0.375 3.875 C-1.00148438 4.40867187 -1.62796875 4.94234375 -2.2734375 5.4921875 C-3.55836651 6.61432007 -4.79371975 7.79371975 -6 9 C-5.52797514 4.75177626 -3.03344482 2.80010291 0 0 Z " fill="#6BA9B2" transform="translate(27,47)"/>
<path d="M0 0 C0.66 0.33 1.32 0.66 2 1 C2 3.64 2 6.28 2 9 C-0.2477975 6.94766315 -1.0022242 5.99332739 -2 3 C-1.34 2.01 -0.68 1.02 0 0 Z " fill="#DDB14D" transform="translate(96,26)"/>
<path d="M0 0 C0.33 0 0.66 0 1 0 C1 3.96 1 7.92 1 12 C0.67 12 0.34 12 0 12 C0 8.04 0 4.08 0 0 Z " fill="#C24E06" transform="translate(73,79)"/>
<path d="M0 0 C0.33 0 0.66 0 1 0 C1 3.96 1 7.92 1 12 C0.67 12 0.34 12 0 12 C0 8.04 0 4.08 0 0 Z " fill="#9BD8D8" transform="translate(26,9)"/>
<path d="M0 0 C0 0.99 0 1.98 0 3 C-0.99 3 -1.98 3 -3 3 C-2.01 2.01 -1.02 1.02 0 0 Z " fill="#5A1B00" transform="translate(71,94)"/>
<path d="M0 0 C0 0.99 0 1.98 0 3 C-0.99 3 -1.98 3 -3 3 C-2.01 2.01 -1.02 1.02 0 0 Z " fill="#611800" transform="translate(97,66)"/>
<path d="" fill="#BD4B06" transform="translate(0,0)"/>
<path d="" fill="#A94600" transform="translate(0,0)"/>
<path d="" fill="#BFBF7F" transform="translate(0,0)"/>
<path d="" fill="#7F7FBF" transform="translate(0,0)"/>
<path d="" fill="#88BBBB" transform="translate(0,0)"/>
<path d="" fill="#7F0000" transform="translate(0,0)"/>
<path d="" fill="#B4D4D4" transform="translate(0,0)"/>
<path d="" fill="#BFFFFF" transform="translate(0,0)"/>
<path d="" fill="#D4B44A" transform="translate(0,0)"/>
<path d="" fill="#FF7F3F" transform="translate(0,0)"/>
<path d="" fill="#AAAAAA" transform="translate(0,0)"/>
<path d="" fill="#FFFF7F" transform="translate(0,0)"/>
<path d="" fill="#FF7F00" transform="translate(0,0)"/>
<path d="M0 0 C0.33 0 0.66 0 1 0 C1 3.96 1 7.92 1 12 C0.67 12 0.34 12 0 12 C0 8.04 0 4.08 0 0 Z " fill="#C24E06" transform="translate(73,79)"/>
<path d="" fill="#A94808" transform="translate(0,0)"/>
<path d="" fill="#7F7F7F" transform="translate(0,0)"/>
<path d="" fill="#7F3F00" transform="translate(0,0)"/>
<path d="" fill="#FFFF7F" transform="translate(0,0)"/>
<path d="" fill="#7F7F7F" transform="translate(0,0)"/>
<path d="" fill="#55AAAA" transform="translate(0,0)"/>
</svg>
