<?xml version="1.0" encoding="UTF-8"?>
<svg version="1.1" xmlns="http://www.w3.org/2000/svg" width="64" height="64">
<path d="M0 0 C0.66 0 1.32 0 2 0 C2 1.32 2 2.64 2 4 C3.32 4 4.64 4 6 4 C6 2.68 6 1.36 6 0 C6.66 0 7.32 0 8 0 C8 1.32 8 2.64 8 4 C9.32 4 10.64 4 12 4 C12 2.68 12 1.36 12 0 C12.66 0 13.32 0 14 0 C14 1.32 14 2.64 14 4 C15.32 4 16.64 4 18 4 C18 2.68 18 1.36 18 0 C18.66 0 19.32 0 20 0 C20 1.32 20 2.64 20 4 C21.32 4 22.64 4 24 4 C24 2.68 24 1.36 24 0 C24.66 0 25.32 0 26 0 C26 1.32 26 2.64 26 4 C27.32 4 28.64 4 30 4 C30 2.68 30 1.36 30 0 C30.66 0 31.32 0 32 0 C32 1.32 32 2.64 32 4 C33.918125 3.938125 33.918125 3.938125 35.875 3.875 C38.0546875 3.8046875 38.0546875 3.8046875 40 4 C42 6 42 6 42.125 9.125 C42.08375 10.07375 42.0425 11.0225 42 12 C43.32 12 44.64 12 46 12 C46 12.66 46 13.32 46 14 C44.68 14 43.36 14 42 14 C42 15.32 42 16.64 42 18 C43.32 18 44.64 18 46 18 C46 18.66 46 19.32 46 20 C44.68 20 43.36 20 42 20 C42 21.32 42 22.64 42 24 C43.32 24 44.64 24 46 24 C46 24.66 46 25.32 46 26 C44.68 26 43.36 26 42 26 C42 27.32 42 28.64 42 30 C43.32 30 44.64 30 46 30 C46 30.66 46 31.32 46 32 C44.68 32 43.36 32 42 32 C42 33.32 42 34.64 42 36 C43.32 36 44.64 36 46 36 C46 36.66 46 37.32 46 38 C44.68 38 43.36 38 42 38 C42 39.32 42 40.64 42 42 C43.32 42 44.64 42 46 42 C46 42.66 46 43.32 46 44 C44.68 44 43.36 44 42 44 C42.04125 44.94875 42.0825 45.8975 42.125 46.875 C42 50 42 50 40 52 C37.31160615 52.26991906 34.70858064 52.08737357 32 52 C32 53.32 32 54.64 32 56 C31.34 56 30.68 56 30 56 C30 54.68 30 53.36 30 52 C28.68 52 27.36 52 26 52 C26 53.32 26 54.64 26 56 C25.34 56 24.68 56 24 56 C24 54.68 24 53.36 24 52 C22.68 52 21.36 52 20 52 C20 53.32 20 54.64 20 56 C19.34 56 18.68 56 18 56 C18 54.68 18 53.36 18 52 C16.68 52 15.36 52 14 52 C14 53.32 14 54.64 14 56 C13.34 56 12.68 56 12 56 C12 54.68 12 53.36 12 52 C10.68 52 9.36 52 8 52 C8 53.32 8 54.64 8 56 C7.34 56 6.68 56 6 56 C6 54.68 6 53.36 6 52 C4.68 52 3.36 52 2 52 C2 53.32 2 54.64 2 56 C1.34 56 0.68 56 0 56 C0 54.68 0 53.36 0 52 C-1.27875 52.04125 -2.5575 52.0825 -3.875 52.125 C-6.0546875 52.1953125 -6.0546875 52.1953125 -8 52 C-10 50 -10 50 -10.125 46.875 C-10.08375 45.92625 -10.0425 44.9775 -10 44 C-11.32 44 -12.64 44 -14 44 C-14 43.34 -14 42.68 -14 42 C-12.68 42 -11.36 42 -10 42 C-10 40.68 -10 39.36 -10 38 C-11.32 38 -12.64 38 -14 38 C-14 37.34 -14 36.68 -14 36 C-12.68 36 -11.36 36 -10 36 C-10 34.68 -10 33.36 -10 32 C-11.32 32 -12.64 32 -14 32 C-14 31.34 -14 30.68 -14 30 C-12.68 30 -11.36 30 -10 30 C-10 28.68 -10 27.36 -10 26 C-11.32 26 -12.64 26 -14 26 C-14 25.34 -14 24.68 -14 24 C-12.68 24 -11.36 24 -10 24 C-10 22.68 -10 21.36 -10 20 C-11.32 20 -12.64 20 -14 20 C-14 19.34 -14 18.68 -14 18 C-12.68 18 -11.36 18 -10 18 C-10 16.68 -10 15.36 -10 14 C-11.32 14 -12.64 14 -14 14 C-14 13.34 -14 12.68 -14 12 C-12.68 12 -11.36 12 -10 12 C-10.061875 10.576875 -10.061875 10.576875 -10.125 9.125 C-10 6 -10 6 -8 4 C-5.31160615 3.73008094 -2.70858064 3.91262643 0 4 C0 2.68 0 1.36 0 0 Z M-8 9 C-8.29835467 11.90623718 -8.42032628 14.59369303 -8.3984375 17.5 C-8.40130768 18.33208984 -8.40417786 19.16417969 -8.40713501 20.02148438 C-8.40917562 21.77995484 -8.40364593 23.53844801 -8.39111328 25.296875 C-8.37505902 27.99009913 -8.39096145 30.6818226 -8.41015625 33.375 C-8.40817382 35.08333665 -8.40433014 36.79167236 -8.3984375 38.5 C-8.40451019 39.30630859 -8.41058289 40.11261719 -8.4168396 40.94335938 C-8.46083314 45.08403026 -8.46083314 45.08403026 -6.73501587 48.71206665 C-4.60399268 50.29396333 -3.4865734 50.37957316 -0.8515625 50.38818359 C-0.02060059 50.39764008 0.81036133 50.40709656 1.66650391 50.4168396 C2.56030762 50.41076691 3.45411133 50.40469421 4.375 50.3984375 C5.75631104 50.40274277 5.75631104 50.40274277 7.16552734 50.40713501 C9.11231094 50.40917631 11.05911502 50.40364183 13.00585938 50.39111328 C15.98874699 50.37506056 18.97027961 50.39095972 21.953125 50.41015625 C23.843753 50.40817383 25.73438015 50.40433018 27.625 50.3984375 C28.51880371 50.40451019 29.41260742 50.41058289 30.33349609 50.4168396 C31.16445801 50.40738312 31.99541992 50.39792664 32.8515625 50.38818359 C33.58197754 50.38579681 34.31239258 50.38341003 35.06494141 50.38095093 C37.59737763 49.88239552 38.47677163 49.06158198 40 47 C40.29835467 44.09376282 40.42032628 41.40630697 40.3984375 38.5 C40.40274277 37.25186523 40.40274277 37.25186523 40.40713501 35.97851562 C40.40917562 34.22004516 40.40364593 32.46155199 40.39111328 30.703125 C40.37505902 28.00990087 40.39096145 25.3181774 40.41015625 22.625 C40.40817382 20.91666335 40.40433014 19.20832764 40.3984375 17.5 C40.40451019 16.69369141 40.41058289 15.88738281 40.4168396 15.05664062 C40.46083314 10.91596974 40.46083314 10.91596974 38.73501587 7.28793335 C36.60399268 5.70603667 35.4865734 5.62042684 32.8515625 5.61181641 C32.02060059 5.60235992 31.18963867 5.59290344 30.33349609 5.5831604 C29.43969238 5.58923309 28.54588867 5.59530579 27.625 5.6015625 C26.70412598 5.59869232 25.78325195 5.59582214 24.83447266 5.59286499 C22.88768906 5.59082369 20.94088498 5.59635817 18.99414062 5.60888672 C16.01125301 5.62493944 13.02972039 5.60904028 10.046875 5.58984375 C8.156247 5.59182617 6.26561985 5.59566982 4.375 5.6015625 C3.48119629 5.59548981 2.58739258 5.58941711 1.66650391 5.5831604 C0.42006104 5.59734512 0.42006104 5.59734512 -0.8515625 5.61181641 C-1.94718506 5.61539658 -1.94718506 5.61539658 -3.06494141 5.61904907 C-5.59737763 6.11760448 -6.47677163 6.93841802 -8 9 Z " fill="#000000" transform="translate(16,4)"/>
<path d="M0 0 C13.2 0 26.4 0 40 0 C40 11.88 40 23.76 40 36 C26.8 36 13.6 36 0 36 C0 24.12 0 12.24 0 0 Z M2 2 C2 12.56 2 23.12 2 34 C13.88 34 25.76 34 38 34 C38 23.44 38 12.88 38 2 C26.12 2 14.24 2 2 2 Z " fill="#000000" transform="translate(12,14)"/>
<path d="M0 0 C5.94 0 11.88 0 18 0 C18 0.66 18 1.32 18 2 C12.06 2 6.12 2 0 2 C0 1.34 0 0.68 0 0 Z " fill="#000000" transform="translate(24,30)"/>
<path d="M0 0 C1.98 0 3.96 0 6 0 C6 1.98 6 3.96 6 6 C4.02 6 2.04 6 0 6 C0 4.02 0 2.04 0 0 Z " fill="#000000" transform="translate(18,20)"/>
<path d="M0 0 C2.31 0 4.62 0 7 0 C7 0.66 7 1.32 7 2 C4.69 2 2.38 2 0 2 C0 1.34 0 0.68 0 0 Z " fill="#000000" transform="translate(24,34)"/>
<path d="M0 0 C0.66 0 1.32 0 2 0 C2 1.32 2 2.64 2 4 C1.34 4 0.68 4 0 4 C0 2.68 0 1.36 0 0 Z " fill="#000000" transform="translate(46,42)"/>
<path d="M0 0 C0.66 0 1.32 0 2 0 C2 1.32 2 2.64 2 4 C1.34 4 0.68 4 0 4 C0 2.68 0 1.36 0 0 Z " fill="#000000" transform="translate(41,42)"/>
<path d="M0 0 C0.66 0 1.32 0 2 0 C2 1.32 2 2.64 2 4 C1.34 4 0.68 4 0 4 C0 2.68 0 1.36 0 0 Z " fill="#000000" transform="translate(36,42)"/>
<path d="M0 0 C0.66 0 1.32 0 2 0 C2 1.32 2 2.64 2 4 C1.34 4 0.68 4 0 4 C0 2.68 0 1.36 0 0 Z " fill="#000000" transform="translate(31,42)"/>
<path d="M0 0 C0.66 0 1.32 0 2 0 C2 1.32 2 2.64 2 4 C1.34 4 0.68 4 0 4 C0 2.68 0 1.36 0 0 Z " fill="#000000" transform="translate(26,42)"/>
<path d="M0 0 C0.66 0 1.32 0 2 0 C2 1.32 2 2.64 2 4 C1.34 4 0.68 4 0 4 C0 2.68 0 1.36 0 0 Z " fill="#000000" transform="translate(21,42)"/>
<path d="M0 0 C0.66 0 1.32 0 2 0 C2 1.32 2 2.64 2 4 C1.34 4 0.68 4 0 4 C0 2.68 0 1.36 0 0 Z " fill="#000000" transform="translate(16,42)"/>
<path d="M0 0 C1.32 0 2.64 0 4 0 C4 0.66 4 1.32 4 2 C2.68 2 1.36 2 0 2 C0 1.34 0 0.68 0 0 Z " fill="#000000" transform="translate(33,34)"/>
</svg>
