<?xml version="1.0" encoding="UTF-8"?>
<svg version="1.1" xmlns="http://www.w3.org/2000/svg" width="100" height="100">
<path d="M0 0 C23.1 0 46.2 0 70 0 C69.195625 9.549375 68.39125 19.09875 67.5625 28.9375 C67.31056885 31.93577881 67.0586377 34.93405762 66.79907227 38.02319336 C66.59661116 40.42041812 66.3940617 42.81763541 66.19140625 45.21484375 C66.08856323 46.44271606 65.98572021 47.67058838 65.87976074 48.93566895 C65.34031436 55.30293654 64.74231133 61.65308905 64 68 C58.78025145 70.36379051 53.5780801 72.14686117 48.0625 73.6875 C46.92264648 74.02491211 46.92264648 74.02491211 45.75976562 74.36914062 C35.72196465 77.18932553 28.37270026 75.57331822 18.5625 72.5625 C16.91217773 72.07426758 16.91217773 72.07426758 15.22851562 71.57617188 C7.15872327 69.15872327 7.15872327 69.15872327 6 68 C5.72785385 65.88734454 5.51938088 63.76646418 5.33569336 61.64428711 C5.27609971 60.97013795 5.21650606 60.29598879 5.15510654 59.60141087 C4.96246479 57.41040028 4.77605166 55.21890954 4.58984375 53.02734375 C4.47212959 51.67806482 4.35400927 50.32882127 4.23547363 48.97961426 C3.79788453 43.96600413 3.36817593 38.95170871 2.9375 33.9375 C1.968125 22.738125 0.99875 11.53875 0 0 Z " fill="#F18F71" transform="translate(15,14)"/>
<path d="M0 0 C9.24 0 18.48 0 28 0 C28 8.10434649 27.91770825 15.84713103 27.16015625 23.859375 C27.07374374 24.81523499 26.98733124 25.77109497 26.89830017 26.75592041 C26.71702067 28.745744 26.53289074 30.73530992 26.34594727 32.72460938 C26.05926946 35.78448133 25.78394094 38.84523496 25.50976562 41.90625 C25.33139229 43.84901933 25.15238001 45.79173013 24.97265625 47.734375 C24.8491555 49.10912994 24.8491555 49.10912994 24.72315979 50.51165771 C24.11533809 56.88466191 24.11533809 56.88466191 23 58 C21.4840625 58.185625 21.4840625 58.185625 19.9375 58.375 C16.88577976 58.85940004 14.83936787 59.36949648 12.0625 60.5 C8.03719735 62.11484744 4.31126252 62.61506585 0 63 C0 60.03 0 57.06 0 54 C-0.66386719 53.80664062 -1.32773437 53.61328125 -2.01171875 53.4140625 C-2.89472656 53.15367188 -3.77773438 52.89328125 -4.6875 52.625 C-5.55761719 52.36976562 -6.42773438 52.11453125 -7.32421875 51.8515625 C-9.92513119 51.02382686 -12.46577023 50.01369191 -15 49 C-15.33 45.04 -15.66 41.08 -16 37 C-13.03 37 -10.06 37 -7 37 C-6.773125 37.78375 -6.54625 38.5675 -6.3125 39.375 C-5.21875 42.21875 -5.21875 42.21875 -2.375 43.3125 C-1.199375 43.6528125 -1.199375 43.6528125 0 44 C-0.020625 42.88625 -0.04125 41.7725 -0.0625 40.625 C0 37 0 37 1 35 C-4.61 35 -10.22 35 -16 35 C-17.125 27.125 -17.125 27.125 -17.09765625 23.37890625 C-17.09443359 22.58935547 -17.09121094 21.79980469 -17.08789062 20.98632812 C-17.07951172 20.18646484 -17.07113281 19.38660156 -17.0625 18.5625 C-17.05798828 17.73556641 -17.05347656 16.90863281 -17.04882812 16.05664062 C-17.03715811 14.03772854 -17.01922718 12.01885426 -17 10 C-11.39 10 -5.78 10 0 10 C0 6.7 0 3.4 0 0 Z " fill="#CD5150" transform="translate(49,20)"/>
<path d="M0 0 C11.22 0 22.44 0 34 0 C34 2.31 34 4.62 34 7 C25.09 7 16.18 7 7 7 C7.33 9.64 7.66 12.28 8 15 C16.25 15.33 24.5 15.66 33 16 C33.14285714 31 33.14285714 31 32 37 C30.02786342 37.73537296 28.05507041 38.46906081 26.078125 39.19140625 C23.89722892 39.99111225 23.89722892 39.99111225 21.5625 41.3125 C15.14813672 43.03342673 7.913819 39.3655276 2 37 C2 34.03 2 31.06 2 28 C3.98 28 5.96 28 8 28 C8.33 29.32 8.66 30.64 9 32 C15.41395823 33.93012632 19.61299527 34.09029246 26 32 C26 28.7 26 25.4 26 22 C17.75 22 9.5 22 1 22 C0.67 14.74 0.34 7.48 0 0 Z " fill="#EAE8D7" transform="translate(33,31)"/>
<path d="M0 0 C23.1 0 46.2 0 70 0 C69.195625 9.549375 68.39125 19.09875 67.5625 28.9375 C67.31056885 31.93577881 67.0586377 34.93405762 66.79907227 38.02319336 C66.59661116 40.42041812 66.3940617 42.81763541 66.19140625 45.21484375 C66.08856323 46.44271606 65.98572021 47.67058838 65.87976074 48.93566895 C65.34031436 55.30293654 64.74231133 61.65308905 64 68 C58.78025145 70.36379051 53.5780801 72.14686117 48.0625 73.6875 C46.92264648 74.02491211 46.92264648 74.02491211 45.75976562 74.36914062 C35.72196465 77.18932553 28.37270026 75.57331822 18.5625 72.5625 C16.91217773 72.07426758 16.91217773 72.07426758 15.22851562 71.57617188 C7.15872327 69.15872327 7.15872327 69.15872327 6 68 C5.72785385 65.88734454 5.51938088 63.76646418 5.33569336 61.64428711 C5.27609971 60.97013795 5.21650606 60.29598879 5.15510654 59.60141087 C4.96246479 57.41040028 4.77605166 55.21890954 4.58984375 53.02734375 C4.47212959 51.67806482 4.35400927 50.32882127 4.23547363 48.97961426 C3.79788453 43.96600413 3.36817593 38.95170871 2.9375 33.9375 C1.968125 22.738125 0.99875 11.53875 0 0 Z M3 2 C4.70330994 25.88482504 4.70330994 25.88482504 6.625 49.75 C6.76058031 51.35675703 6.89599658 52.96352792 7.03125 54.5703125 C7.35230633 58.38036812 7.67547439 62.19023838 8 66 C13.37110682 68.3917917 13.37110682 68.3917917 18.97265625 70.1328125 C19.64490234 70.29910156 20.31714844 70.46539062 21.00976562 70.63671875 C21.68716797 70.79785156 22.36457031 70.95898438 23.0625 71.125 C23.74376953 71.29386719 24.42503906 71.46273437 25.12695312 71.63671875 C33.95590827 73.86238817 33.95590827 73.86238817 42.80078125 72.6015625 C43.85974609 72.28703125 44.91871094 71.9725 46.00976562 71.6484375 C47.64461914 71.14183594 47.64461914 71.14183594 49.3125 70.625 C50.97635742 70.13 50.97635742 70.13 52.67382812 69.625 C57.69961208 68.49100516 57.69961208 68.49100516 62 66 C62.2802521 63.66660917 62.50088281 61.35337656 62.68359375 59.01171875 C62.77423851 57.91486504 62.77423851 57.91486504 62.86671448 56.79585266 C62.99570412 55.22467032 63.12249432 53.65330618 63.24731445 52.08178711 C63.42932115 49.79046532 63.6172316 47.4997046 63.80664062 45.20898438 C64.97753199 30.81248066 65.97079771 16.40883203 67 2 C45.88 2 24.76 2 3 2 Z " fill="#27252D" transform="translate(15,14)"/>
<path d="M0 0 C11.88 0 23.76 0 36 0 C36 2.97 36 5.94 36 9 C27.09 9 18.18 9 9 9 C9.33 10.98 9.66 12.96 10 15 C12.31 15 14.62 15 17 15 C17 13.68 17 12.36 17 11 C17.66 11 18.32 11 19 11 C19 12.32 19 13.64 19 15 C24.28 15 29.56 15 35 15 C35.05437005 17.85442753 35.09384974 20.70780076 35.125 23.5625 C35.14175781 24.36236328 35.15851563 25.16222656 35.17578125 25.98632812 C35.21723982 31.06500335 34.64056075 35.18811906 33 40 C32.01 39.67 31.02 39.34 30 39 C30.99 38.505 30.99 38.505 32 38 C32.46907051 35.87001829 32.46907051 35.87001829 32.6328125 33.30859375 C32.71660156 32.36435547 32.80039063 31.42011719 32.88671875 30.44726562 C32.96535156 29.45404297 33.04398438 28.46082031 33.125 27.4375 C33.21136719 26.44041016 33.29773438 25.44332031 33.38671875 24.41601562 C33.59956793 21.94460012 33.80359321 19.47276775 34 17 C33.2479126 17.00523682 32.4958252 17.01047363 31.72094727 17.01586914 C28.33480658 17.03657227 24.94867916 17.04963877 21.5625 17.0625 C20.37849609 17.07087891 19.19449219 17.07925781 17.97460938 17.08789062 C16.84990234 17.09111328 15.72519531 17.09433594 14.56640625 17.09765625 C13.00321655 17.10551147 13.00321655 17.10551147 11.40844727 17.11352539 C9 17 9 17 8 16 C8 13.36 8 10.72 8 8 C16.91 8 25.82 8 35 8 C35 5.69 35 3.38 35 1 C23.78 1 12.56 1 1 1 C1.33 3.97 1.66 6.94 2 10 C2.11385244 14.34005504 2.04571528 18.65704793 2 23 C10.25 23 18.5 23 27 23 C27 26.3 27 29.6 27 33 C20.55411399 36.04714611 16.76632168 36.17712665 10 34 C9.67 32.35 9.34 30.7 9 29 C7.02 29 5.04 29 3 29 C3 31.97 3 34.94 3 38 C4.32 38.66 5.64 39.32 7 40 C5.35 39.67 3.7 39.34 2 39 C1.67 35.04 1.34 31.08 1 27 C3.97 27 6.94 27 10 27 C10.226875 27.78375 10.45375 28.5675 10.6875 29.375 C11.78125 32.21875 11.78125 32.21875 14.625 33.3125 C15.800625 33.6528125 15.800625 33.6528125 17 34 C16.979375 32.88625 16.95875 31.7725 16.9375 30.625 C17 27 17 27 18 25 C12.39 25 6.78 25 1 25 C0 18 0 18 0 0 Z " fill="#7A615E" transform="translate(32,30)"/>
<path d="M0 0 C5.28 0 10.56 0 16 0 C16.14285714 15 16.14285714 15 15 21 C13.02786342 21.73537296 11.05507041 22.46906081 9.078125 23.19140625 C6.89722892 23.99111225 6.89722892 23.99111225 4.5625 25.3125 C-1.85186328 27.03342673 -9.086181 23.3655276 -15 21 C-15 18.03 -15 15.06 -15 12 C-13.02 12 -11.04 12 -9 12 C-8.67 13.32 -8.34 14.64 -8 16 C-1.58604177 17.93012632 2.61299527 18.09029246 9 16 C9 12.7 9 9.4 9 6 C6.03 6 3.06 6 0 6 C0 4.02 0 2.04 0 0 Z " fill="#F9F8EA" transform="translate(50,47)"/>
<path d="M0 0 C11.88 0 23.76 0 36 0 C36 2.97 36 5.94 36 9 C27.09 9 18.18 9 9 9 C9.33 10.98 9.66 12.96 10 15 C12.31 15 14.62 15 17 15 C17 13.68 17 12.36 17 11 C17.66 11 18.32 11 19 11 C19 12.32 19 13.64 19 15 C24.28 15 29.56 15 35 15 C35.05437005 17.85442753 35.09384974 20.70780076 35.125 23.5625 C35.14175781 24.36236328 35.15851563 25.16222656 35.17578125 25.98632812 C35.21723982 31.06500335 34.64056075 35.18811906 33 40 C32.01 39.67 31.02 39.34 30 39 C30.99 38.505 30.99 38.505 32 38 C32.46907051 35.87001829 32.46907051 35.87001829 32.6328125 33.30859375 C32.71660156 32.36435547 32.80039063 31.42011719 32.88671875 30.44726562 C32.96535156 29.45404297 33.04398438 28.46082031 33.125 27.4375 C33.21136719 26.44041016 33.29773438 25.44332031 33.38671875 24.41601562 C33.59956793 21.94460012 33.80359321 19.47276775 34 17 C33.2479126 17.00523682 32.4958252 17.01047363 31.72094727 17.01586914 C28.33480658 17.03657227 24.94867916 17.04963877 21.5625 17.0625 C20.37849609 17.07087891 19.19449219 17.07925781 17.97460938 17.08789062 C16.84990234 17.09111328 15.72519531 17.09433594 14.56640625 17.09765625 C13.00321655 17.10551147 13.00321655 17.10551147 11.40844727 17.11352539 C9 17 9 17 8 16 C8 13.36 8 10.72 8 8 C16.91 8 25.82 8 35 8 C35 5.69 35 3.38 35 1 C23.78 1 12.56 1 1 1 C1 3.97 1 6.94 1 10 C0.67 10 0.34 10 0 10 C0 6.7 0 3.4 0 0 Z " fill="#4E353B" transform="translate(32,30)"/>
<path d="M0 0 C1.98 0 3.96 0 6 0 C6.08121094 0.62390625 6.16242187 1.2478125 6.24609375 1.890625 C6.79429444 4.1492447 6.79429444 4.1492447 8.84765625 5.046875 C9.94400391 5.39492187 9.94400391 5.39492187 11.0625 5.75 C11.79597656 5.99234375 12.52945313 6.2346875 13.28515625 6.484375 C13.85105469 6.65453125 14.41695312 6.8246875 15 7 C15 8.98 15 10.96 15 13 C15.66 13.33 16.32 13.66 17 14 C11.07136283 12.83348574 5.61201606 11.24480642 0 9 C0 6.03 0 3.06 0 0 Z " fill="#EBE9D7" transform="translate(35,59)"/>
<path d="M0 0 C5.61 0 11.22 0 17 0 C17 1.65 17 3.3 17 5 C11.39 5 5.78 5 0 5 C0 3.35 0 1.7 0 0 Z " fill="#FDFCEE" transform="translate(50,32)"/>
<path d="M0 0 C2.64 0 5.28 0 8 0 C7.67 2.97 7.34 5.94 7 9 C5.02 9 3.04 9 1 9 C0.67 6.03 0.34 3.06 0 0 Z " fill="#DA5351" transform="translate(50,55)"/>
<path d="M0 0 C2.97 0 5.94 0 9 0 C8.67 1.98 8.34 3.96 8 6 C5.69 6 3.38 6 1 6 C0.67 4.02 0.34 2.04 0 0 Z " fill="#F39072" transform="translate(41,39)"/>
<path d="M0 0 C0.33 0 0.66 0 1 0 C1 1.65 1 3.3 1 5 C1.66 5 2.32 5 3 5 C2.67 8.96 2.34 12.92 2 17 C1.01 17.33 0.02 17.66 -1 18 C-1.09706112 11.88514973 -0.77040851 6.06696699 0 0 Z " fill="#372D32" transform="translate(79,44)"/>
<path d="M0 0 C0.66 0 1.32 0 2 0 C2 0.99 2 1.98 2 3 C9.92 3.33 17.84 3.66 26 4 C26 4.33 26 4.66 26 5 C17.75 5 9.5 5 1 5 C0.67 3.35 0.34 1.7 0 0 Z " fill="#786360" transform="translate(40,42)"/>
<path d="M0 0 C0.33 0 0.66 0 1 0 C1.02685938 2.14576637 1.04633088 4.29162645 1.0625 6.4375 C1.07410156 7.63246094 1.08570312 8.82742187 1.09765625 10.05859375 C1 13 1 13 0 14 C-1.66617115 14.04063832 -3.33388095 14.042721 -5 14 C-4.01 13.34 -3.02 12.68 -2 12 C-1.19663887 9.12240932 -1.19663887 9.12240932 -0.8125 5.875 C-0.65394531 4.77929688 -0.49539062 3.68359375 -0.33203125 2.5546875 C-0.22246094 1.71164063 -0.11289063 0.86859375 0 0 Z " fill="#703F40" transform="translate(72,64)"/>
<path d="M0 0 C0.66 0 1.32 0 2 0 C2 2.31 2 4.62 2 7 C2.99 7.33 3.98 7.66 5 8 C3.35 8.33 1.7 8.66 0 9 C0 6.03 0 3.06 0 0 Z " fill="#754544" transform="translate(49,57)"/>
</svg>
