<?xml version="1.0" encoding="UTF-8"?>
<svg version="1.1" xmlns="http://www.w3.org/2000/svg" width="100" height="100">
<path d="M0 0 C23.1 0 46.2 0 70 0 C69.195625 9.549375 68.39125 19.09875 67.5625 28.9375 C67.31056885 31.93577881 67.0586377 34.93405762 66.79907227 38.02319336 C66.59661116 40.42041812 66.3940617 42.81763541 66.19140625 45.21484375 C66.08856323 46.44271606 65.98572021 47.67058838 65.87976074 48.93566895 C65.34031436 55.30293654 64.74231133 61.65308905 64 68 C58.78025145 70.36379051 53.5780801 72.14686117 48.0625 73.6875 C46.92264648 74.02491211 46.92264648 74.02491211 45.75976562 74.36914062 C35.72196465 77.18932553 28.37270026 75.57331822 18.5625 72.5625 C16.91217773 72.07426758 16.91217773 72.07426758 15.22851562 71.57617188 C7.15872327 69.15872327 7.15872327 69.15872327 6 68 C5.72785385 65.88734454 5.51938088 63.76646418 5.33569336 61.64428711 C5.27609971 60.97013795 5.21650606 60.29598879 5.15510654 59.60141087 C4.96246479 57.41040028 4.77605166 55.21890954 4.58984375 53.02734375 C4.47212959 51.67806482 4.35400927 50.32882127 4.23547363 48.97961426 C3.79788453 43.96600413 3.36817593 38.95170871 2.9375 33.9375 C1.968125 22.738125 0.99875 11.53875 0 0 Z " fill="#306EB1" transform="translate(15,14)"/>
<path d="M0 0 C11.22 0 22.44 0 34 0 C33.34 12.21 32.68 24.42 32 37 C20.21933855 41.41774804 14.83606267 43.13024145 3 38 C2 37 2 37 1.90234375 34.71484375 C1.91974609 33.34005859 1.91974609 33.34005859 1.9375 31.9375 C1.94652344 31.01839844 1.95554688 30.09929688 1.96484375 29.15234375 C1.97644531 28.44207031 1.98804688 27.73179688 2 27 C3.98 27 5.96 27 8 27 C8.33 28.65 8.66 30.3 9 32 C15.41395823 33.93012632 19.61299527 34.09029246 26 32 C26 28.7 26 25.4 26 22 C20.39 22 14.78 22 9 22 C9 20.02 9 18.04 9 16 C17.415 15.505 17.415 15.505 26 15 C26.33 12.36 26.66 9.72 27 7 C18.09 7 9.18 7 0 7 C0 4.69 0 2.38 0 0 Z " fill="#FCFBED" transform="translate(33,31)"/>
<path d="M0 0 C8.25 0 16.5 0 25 0 C24.33839235 10.95748281 23.60853279 21.9062363 22.75268555 32.8503418 C22.62411835 34.51478364 22.49921507 36.17951193 22.37768555 37.84448242 C22.19893622 40.28896831 22.00893781 42.73234711 21.81640625 45.17578125 C21.73816368 46.29126091 21.73816368 46.29126091 21.65834045 47.42927551 C21.36027989 51.05172943 21.05920988 52.91118518 19 56 C17.24414063 56.79956055 17.24414063 56.79956055 15.15625 57.38671875 C14.02896484 57.7105957 14.02896484 57.7105957 12.87890625 58.04101562 C11.70134766 58.36102539 11.70134766 58.36102539 10.5 58.6875 C9.71496094 58.91244141 8.92992187 59.13738281 8.12109375 59.36914062 C2.34120916 61 2.34120916 61 0 61 C-0.33 58.36 -0.66 55.72 -1 53 C1.10251861 52.32815382 3.20707763 51.66269032 5.3125 51 C6.48425781 50.62875 7.65601563 50.2575 8.86328125 49.875 C12 49 12 49 15 49 C15.66 35.8 16.32 22.6 17 9 C11.39 9 5.78 9 0 9 C0 6.03 0 3.06 0 0 Z " fill="#09AAE1" transform="translate(51,21)"/>
<path d="M0 0 C23.1 0 46.2 0 70 0 C69.195625 9.549375 68.39125 19.09875 67.5625 28.9375 C67.31056885 31.93577881 67.0586377 34.93405762 66.79907227 38.02319336 C66.59661116 40.42041812 66.3940617 42.81763541 66.19140625 45.21484375 C66.08856323 46.44271606 65.98572021 47.67058838 65.87976074 48.93566895 C65.34031436 55.30293654 64.74231133 61.65308905 64 68 C58.78025145 70.36379051 53.5780801 72.14686117 48.0625 73.6875 C46.92264648 74.02491211 46.92264648 74.02491211 45.75976562 74.36914062 C35.72196465 77.18932553 28.37270026 75.57331822 18.5625 72.5625 C16.91217773 72.07426758 16.91217773 72.07426758 15.22851562 71.57617188 C7.15872327 69.15872327 7.15872327 69.15872327 6 68 C5.72785385 65.88734454 5.51938088 63.76646418 5.33569336 61.64428711 C5.27609971 60.97013795 5.21650606 60.29598879 5.15510654 59.60141087 C4.96246479 57.41040028 4.77605166 55.21890954 4.58984375 53.02734375 C4.47212959 51.67806482 4.35400927 50.32882127 4.23547363 48.97961426 C3.79788453 43.96600413 3.36817593 38.95170871 2.9375 33.9375 C1.968125 22.738125 0.99875 11.53875 0 0 Z M3 2 C4.70330994 25.88482504 4.70330994 25.88482504 6.625 49.75 C6.76058031 51.35675703 6.89599658 52.96352792 7.03125 54.5703125 C7.35230633 58.38036812 7.67547439 62.19023838 8 66 C13.37110682 68.3917917 13.37110682 68.3917917 18.97265625 70.1328125 C19.64490234 70.29910156 20.31714844 70.46539062 21.00976562 70.63671875 C21.68716797 70.79785156 22.36457031 70.95898438 23.0625 71.125 C23.74376953 71.29386719 24.42503906 71.46273437 25.12695312 71.63671875 C33.95590827 73.86238817 33.95590827 73.86238817 42.80078125 72.6015625 C43.85974609 72.28703125 44.91871094 71.9725 46.00976562 71.6484375 C47.64461914 71.14183594 47.64461914 71.14183594 49.3125 70.625 C50.97635742 70.13 50.97635742 70.13 52.67382812 69.625 C57.69961208 68.49100516 57.69961208 68.49100516 62 66 C62.2802521 63.66660917 62.50088281 61.35337656 62.68359375 59.01171875 C62.77423851 57.91486504 62.77423851 57.91486504 62.86671448 56.79585266 C62.99570412 55.22467032 63.12249432 53.65330618 63.24731445 52.08178711 C63.42932115 49.79046532 63.6172316 47.4997046 63.80664062 45.20898438 C64.97753199 30.81248066 65.97079771 16.40883203 67 2 C45.88 2 24.76 2 3 2 Z " fill="#1F2330" transform="translate(15,14)"/>
<path d="M0 0 C1.65 0 3.3 0 5 0 C4.01 0.33 3.02 0.66 2 1 C2 3.97 2 6.94 2 10 C7.61 10 13.22 10 19 10 C19 13.3 19 16.6 19 20 C18.67 20 18.34 20 18 20 C18 17.03 18 14.06 18 11 C6.78 11 -4.44 11 -16 11 C-16 13.31 -16 15.62 -16 18 C-7.09 18 1.82 18 11 18 C11 20.64 11 23.28 11 26 C10 27 10 27 6.18359375 27.09765625 C4.60153318 27.09098089 3.01948841 27.07901875 1.4375 27.0625 C0.63119141 27.05798828 -0.17511719 27.05347656 -1.00585938 27.04882812 C-3.00393756 27.03700518 -5.00197783 27.01906914 -7 27 C-7 28.98 -7 30.96 -7 33 C-1.39 33 4.22 33 10 33 C10 36.3 10 39.6 10 43 C9.34 43 8.68 43 8 43 C8.33 40.36 8.66 37.72 9 35 C3.39 35 -2.22 35 -8 35 C-8.87890625 28.06640625 -8.87890625 28.06640625 -9 26 C-8 25 -8 25 -6.15234375 24.90234375 C-4.1015625 24.93489583 -2.05078125 24.96744792 0 25 C0 23.68 0 22.36 0 21 C0.66 21 1.32 21 2 21 C2 22.32 2 23.64 2 25 C4.64 25 7.28 25 10 25 C10 23.02 10 21.04 10 19 C1.09 19 -7.82 19 -17 19 C-17 16.03 -17 13.06 -17 10 C-11.39 10 -5.78 10 0 10 C0 6.7 0 3.4 0 0 Z " fill="#334D60" transform="translate(49,20)"/>
<path d="M0 0 C11.22 0 22.44 0 34 0 C34 0.33 34 0.66 34 1 C28.39 1 22.78 1 17 1 C17 2.65 17 4.3 17 6 C20.3 6 23.6 6 27 6 C27 6.33 27 6.66 27 7 C18.09 7 9.18 7 0 7 C0 4.69 0 2.38 0 0 Z " fill="#E8E6D5" transform="translate(33,31)"/>
<path d="M0 0 C4.62 0 9.24 0 14 0 C14.08476704 7.44625427 13.80807987 14.72453947 13.125 22.13671875 C12.99182373 23.64489922 12.99182373 23.64489922 12.85595703 25.18354797 C12.57514765 28.35195321 12.28769536 31.51971338 12 34.6875 C11.80684943 36.85347623 11.61413713 39.0194916 11.421875 41.18554688 C10.95297595 46.45749366 10.47864171 51.72892929 10 57 C8.72978861 57.48122302 7.4591078 57.96120709 6.18823242 58.44067383 C5.48067307 58.70809891 4.77311371 58.97552399 4.04411316 59.25105286 C1.49579811 60.18473565 -1.07160115 60.96574105 -3.6875 61.6875 C-4.57824219 61.93886719 -5.46898437 62.19023438 -6.38671875 62.44921875 C-9.00526316 63.00110928 -11.33276194 63.10092252 -14 63 C-14 60.69 -14 58.38 -14 56 C-13.34 56 -12.68 56 -12 56 C-12 57.98 -12 59.96 -12 62 C-8.85030044 61.05406678 -5.70603477 60.0912044 -2.5625 59.125 C-1.66466797 58.85558594 -0.76683594 58.58617187 0.15820312 58.30859375 C1.43920898 57.91220703 1.43920898 57.91220703 2.74609375 57.5078125 C3.53685303 57.26691895 4.3276123 57.02602539 5.14233398 56.77783203 C7.19364992 56.15628278 7.19364992 56.15628278 8 54 C8.19715492 52.55893947 8.34432167 51.1108596 8.46484375 49.66137695 C8.54162354 48.76316727 8.61840332 47.86495758 8.69750977 46.93952942 C8.77670654 45.96561752 8.85590332 44.99170563 8.9375 43.98828125 C9.02249756 42.98669479 9.10749512 41.98510834 9.19506836 40.95317078 C9.46725041 37.73992612 9.73396749 34.52625918 10 31.3125 C10.26674126 28.1166604 10.53468243 24.92093249 10.80493164 21.72538757 C10.97299565 19.73551165 11.13894686 17.74545581 11.30249023 15.75520325 C11.71837418 10.80460778 12.23504554 5.90916296 13 1 C8.71 1 4.42 1 0 1 C0 0.67 0 0.34 0 0 Z " fill="#1E425D" transform="translate(63,20)"/>
<path d="M0 0 C1.98 0 3.96 0 6 0 C6 0.763125 6 1.52625 6 2.3125 C6.70180149 5.1006883 6.70180149 5.1006883 8.84765625 6 C10.88309495 6.74668651 12.91262742 7.41515529 15 8 C15 10.31 15 12.62 15 15 C13.24859857 14.54705135 11.49892656 14.08741252 9.75 13.625 C8.28820312 13.24214844 8.28820312 13.24214844 6.796875 12.8515625 C4 12 4 12 0 10 C0 6.7 0 3.4 0 0 Z " fill="#E6E4D2" transform="translate(35,58)"/>
<path d="M0 0 C2.64 0 5.28 0 8 0 C8.3403125 1.175625 8.3403125 1.175625 8.6875 2.375 C9.78125 5.21875 9.78125 5.21875 12.625 6.3125 C13.800625 6.6528125 13.800625 6.6528125 15 7 C15 4.69 15 2.38 15 0 C15.66 0 16.32 0 17 0 C17 2.31 17 4.62 17 7 C17.99 7.33 18.98 7.66 20 8 C14.52667068 9.46845421 11.88077452 8.44038726 7 6 C7 4.35 7 2.7 7 1 C5.02 1 3.04 1 1 1 C1.0870005 2.62600941 1.1951781 4.25089678 1.3125 5.875 C1.37050781 6.77992187 1.42851563 7.68484375 1.48828125 8.6171875 C1.7882039 11.36221601 1.7882039 11.36221601 5 13 C3.35 12.67 1.7 12.34 0 12 C0 8.04 0 4.08 0 0 Z " fill="#374F64" transform="translate(34,57)"/>
<path d="M0 0 C2.64 0 5.28 0 8 0 C7.67 2.97 7.34 5.94 7 9 C5.02 9 3.04 9 1 9 C0.67 6.03 0.34 3.06 0 0 Z " fill="#0BA3D7" transform="translate(50,55)"/>
<path d="M0 0 C2.97 0 5.94 0 9 0 C9 1.98 9 3.96 9 6 C6.36 6 3.72 6 1 6 C0.67 4.02 0.34 2.04 0 0 Z " fill="#09A8DD" transform="translate(50,39)"/>
<path d="M0 0 C2.64 0 5.28 0 8 0 C8 1.98 8 3.96 8 6 C5.36 6 2.72 6 0 6 C0 4.02 0 2.04 0 0 Z " fill="#EEECD9" transform="translate(42,47)"/>
<path d="M0 0 C0.33 0 0.66 0 1 0 C1 1.65 1 3.3 1 5 C1.66 5 2.32 5 3 5 C2.67 8.96 2.34 12.92 2 17 C1.01 17.33 0.02 17.66 -1 18 C-1.09706112 11.88514973 -0.77040851 6.06696699 0 0 Z " fill="#20293A" transform="translate(79,44)"/>
</svg>
